G04 #@! TF.GenerationSoftware,KiCad,Pcbnew,6.0.11-2627ca5db0~126~ubuntu22.04.1*
G04 #@! TF.CreationDate,2023-04-18T11:26:26+01:00*
G04 #@! TF.ProjectId,pim,70696d2e-6b69-4636-9164-5f7063625858,rev?*
G04 #@! TF.SameCoordinates,Original*
G04 #@! TF.FileFunction,Legend,Top*
G04 #@! TF.FilePolarity,Positive*
%FSLAX46Y46*%
G04 Gerber Fmt 4.6, Leading zero omitted, Abs format (unit mm)*
G04 Created by KiCad (PCBNEW 6.0.11-2627ca5db0~126~ubuntu22.04.1) date 2023-04-18 11:26:26*
%MOMM*%
%LPD*%
G01*
G04 APERTURE LIST*
%ADD10C,0.150000*%
%ADD11C,0.125000*%
%ADD12C,0.120000*%
%ADD13C,1.524000*%
%ADD14R,1.700000X1.700000*%
%ADD15O,1.700000X1.700000*%
G04 APERTURE END LIST*
D10*
X121980000Y-129940000D02*
X124440000Y-129940000D01*
X124440000Y-129940000D02*
X124440000Y-121640000D01*
X124440000Y-121640000D02*
X121980000Y-121640000D01*
X121980000Y-121640000D02*
X121980000Y-129940000D01*
G36*
X121980000Y-129940000D02*
G01*
X124440000Y-129940000D01*
X124440000Y-121640000D01*
X121980000Y-121640000D01*
X121980000Y-129940000D01*
G37*
D11*
X111152380Y-104095714D02*
X111152380Y-104905238D01*
X111114285Y-105000476D01*
X111076190Y-105048095D01*
X111000000Y-105095714D01*
X110885714Y-105095714D01*
X110809523Y-105048095D01*
X111152380Y-104714761D02*
X111076190Y-104762380D01*
X110923809Y-104762380D01*
X110847619Y-104714761D01*
X110809523Y-104667142D01*
X110771428Y-104571904D01*
X110771428Y-104286190D01*
X110809523Y-104190952D01*
X110847619Y-104143333D01*
X110923809Y-104095714D01*
X111076190Y-104095714D01*
X111152380Y-104143333D01*
X111533333Y-104762380D02*
X111533333Y-104095714D01*
X111533333Y-103762380D02*
X111495238Y-103810000D01*
X111533333Y-103857619D01*
X111571428Y-103810000D01*
X111533333Y-103762380D01*
X111533333Y-103857619D01*
X111800000Y-104095714D02*
X112104761Y-104095714D01*
X111914285Y-103762380D02*
X111914285Y-104619523D01*
X111952380Y-104714761D01*
X112028571Y-104762380D01*
X112104761Y-104762380D01*
X112371428Y-104762380D02*
X112371428Y-103762380D01*
X112714285Y-104762380D02*
X112714285Y-104238571D01*
X112676190Y-104143333D01*
X112600000Y-104095714D01*
X112485714Y-104095714D01*
X112409523Y-104143333D01*
X112371428Y-104190952D01*
X113438095Y-104095714D02*
X113438095Y-104762380D01*
X113095238Y-104095714D02*
X113095238Y-104619523D01*
X113133333Y-104714761D01*
X113209523Y-104762380D01*
X113323809Y-104762380D01*
X113400000Y-104714761D01*
X113438095Y-104667142D01*
X113819047Y-104762380D02*
X113819047Y-103762380D01*
X113819047Y-104143333D02*
X113895238Y-104095714D01*
X114047619Y-104095714D01*
X114123809Y-104143333D01*
X114161904Y-104190952D01*
X114200000Y-104286190D01*
X114200000Y-104571904D01*
X114161904Y-104667142D01*
X114123809Y-104714761D01*
X114047619Y-104762380D01*
X113895238Y-104762380D01*
X113819047Y-104714761D01*
X114542857Y-104667142D02*
X114580952Y-104714761D01*
X114542857Y-104762380D01*
X114504761Y-104714761D01*
X114542857Y-104667142D01*
X114542857Y-104762380D01*
X115266666Y-104714761D02*
X115190476Y-104762380D01*
X115038095Y-104762380D01*
X114961904Y-104714761D01*
X114923809Y-104667142D01*
X114885714Y-104571904D01*
X114885714Y-104286190D01*
X114923809Y-104190952D01*
X114961904Y-104143333D01*
X115038095Y-104095714D01*
X115190476Y-104095714D01*
X115266666Y-104143333D01*
X115723809Y-104762380D02*
X115647619Y-104714761D01*
X115609523Y-104667142D01*
X115571428Y-104571904D01*
X115571428Y-104286190D01*
X115609523Y-104190952D01*
X115647619Y-104143333D01*
X115723809Y-104095714D01*
X115838095Y-104095714D01*
X115914285Y-104143333D01*
X115952380Y-104190952D01*
X115990476Y-104286190D01*
X115990476Y-104571904D01*
X115952380Y-104667142D01*
X115914285Y-104714761D01*
X115838095Y-104762380D01*
X115723809Y-104762380D01*
X116333333Y-104762380D02*
X116333333Y-104095714D01*
X116333333Y-104190952D02*
X116371428Y-104143333D01*
X116447619Y-104095714D01*
X116561904Y-104095714D01*
X116638095Y-104143333D01*
X116676190Y-104238571D01*
X116676190Y-104762380D01*
X116676190Y-104238571D02*
X116714285Y-104143333D01*
X116790476Y-104095714D01*
X116904761Y-104095714D01*
X116980952Y-104143333D01*
X117019047Y-104238571D01*
X117019047Y-104762380D01*
X117971428Y-103714761D02*
X117285714Y-105000476D01*
X118580952Y-104762380D02*
X118580952Y-103762380D01*
X118580952Y-104714761D02*
X118504761Y-104762380D01*
X118352380Y-104762380D01*
X118276190Y-104714761D01*
X118238095Y-104667142D01*
X118200000Y-104571904D01*
X118200000Y-104286190D01*
X118238095Y-104190952D01*
X118276190Y-104143333D01*
X118352380Y-104095714D01*
X118504761Y-104095714D01*
X118580952Y-104143333D01*
X119266666Y-104714761D02*
X119190476Y-104762380D01*
X119038095Y-104762380D01*
X118961904Y-104714761D01*
X118923809Y-104619523D01*
X118923809Y-104238571D01*
X118961904Y-104143333D01*
X119038095Y-104095714D01*
X119190476Y-104095714D01*
X119266666Y-104143333D01*
X119304761Y-104238571D01*
X119304761Y-104333809D01*
X118923809Y-104429047D01*
X119647619Y-104762380D02*
X119647619Y-104095714D01*
X119647619Y-104286190D02*
X119685714Y-104190952D01*
X119723809Y-104143333D01*
X119800000Y-104095714D01*
X119876190Y-104095714D01*
X120447619Y-104714761D02*
X120371428Y-104762380D01*
X120219047Y-104762380D01*
X120142857Y-104714761D01*
X120104761Y-104619523D01*
X120104761Y-104238571D01*
X120142857Y-104143333D01*
X120219047Y-104095714D01*
X120371428Y-104095714D01*
X120447619Y-104143333D01*
X120485714Y-104238571D01*
X120485714Y-104333809D01*
X120104761Y-104429047D01*
X120828571Y-104762380D02*
X120828571Y-103762380D01*
X120904761Y-104381428D02*
X121133333Y-104762380D01*
X121133333Y-104095714D02*
X120828571Y-104476666D01*
X121361904Y-104095714D02*
X121666666Y-104095714D01*
X121476190Y-104762380D02*
X121476190Y-103905238D01*
X121514285Y-103810000D01*
X121590476Y-103762380D01*
X121666666Y-103762380D01*
X122047619Y-104762380D02*
X121971428Y-104714761D01*
X121933333Y-104667142D01*
X121895238Y-104571904D01*
X121895238Y-104286190D01*
X121933333Y-104190952D01*
X121971428Y-104143333D01*
X122047619Y-104095714D01*
X122161904Y-104095714D01*
X122238095Y-104143333D01*
X122276190Y-104190952D01*
X122314285Y-104286190D01*
X122314285Y-104571904D01*
X122276190Y-104667142D01*
X122238095Y-104714761D01*
X122161904Y-104762380D01*
X122047619Y-104762380D01*
X123000000Y-104095714D02*
X123000000Y-104762380D01*
X122657142Y-104095714D02*
X122657142Y-104619523D01*
X122695238Y-104714761D01*
X122771428Y-104762380D01*
X122885714Y-104762380D01*
X122961904Y-104714761D01*
X123000000Y-104667142D01*
X123380952Y-104095714D02*
X123380952Y-104762380D01*
X123380952Y-104190952D02*
X123419047Y-104143333D01*
X123495238Y-104095714D01*
X123609523Y-104095714D01*
X123685714Y-104143333D01*
X123723809Y-104238571D01*
X123723809Y-104762380D01*
X123990476Y-104095714D02*
X124295238Y-104095714D01*
X124104761Y-103762380D02*
X124104761Y-104619523D01*
X124142857Y-104714761D01*
X124219047Y-104762380D01*
X124295238Y-104762380D01*
X124904761Y-104762380D02*
X124904761Y-104238571D01*
X124866666Y-104143333D01*
X124790476Y-104095714D01*
X124638095Y-104095714D01*
X124561904Y-104143333D01*
X124904761Y-104714761D02*
X124828571Y-104762380D01*
X124638095Y-104762380D01*
X124561904Y-104714761D01*
X124523809Y-104619523D01*
X124523809Y-104524285D01*
X124561904Y-104429047D01*
X124638095Y-104381428D01*
X124828571Y-104381428D01*
X124904761Y-104333809D01*
X125285714Y-104762380D02*
X125285714Y-104095714D01*
X125285714Y-103762380D02*
X125247619Y-103810000D01*
X125285714Y-103857619D01*
X125323809Y-103810000D01*
X125285714Y-103762380D01*
X125285714Y-103857619D01*
X125666666Y-104095714D02*
X125666666Y-104762380D01*
X125666666Y-104190952D02*
X125704761Y-104143333D01*
X125780952Y-104095714D01*
X125895238Y-104095714D01*
X125971428Y-104143333D01*
X126009523Y-104238571D01*
X126009523Y-104762380D01*
X126961904Y-103714761D02*
X126276190Y-105000476D01*
X127152380Y-104095714D02*
X127571428Y-104095714D01*
X127152380Y-104762380D01*
X127571428Y-104762380D01*
X127800000Y-104762380D02*
X128219047Y-104095714D01*
X127800000Y-104095714D02*
X128219047Y-104762380D01*
X128523809Y-104381428D02*
X129133333Y-104381428D01*
X129476190Y-104714761D02*
X129552380Y-104762380D01*
X129704761Y-104762380D01*
X129780952Y-104714761D01*
X129819047Y-104619523D01*
X129819047Y-104571904D01*
X129780952Y-104476666D01*
X129704761Y-104429047D01*
X129590476Y-104429047D01*
X129514285Y-104381428D01*
X129476190Y-104286190D01*
X129476190Y-104238571D01*
X129514285Y-104143333D01*
X129590476Y-104095714D01*
X129704761Y-104095714D01*
X129780952Y-104143333D01*
X130161904Y-104095714D02*
X130161904Y-105095714D01*
X130161904Y-104143333D02*
X130238095Y-104095714D01*
X130390476Y-104095714D01*
X130466666Y-104143333D01*
X130504761Y-104190952D01*
X130542857Y-104286190D01*
X130542857Y-104571904D01*
X130504761Y-104667142D01*
X130466666Y-104714761D01*
X130390476Y-104762380D01*
X130238095Y-104762380D01*
X130161904Y-104714761D01*
X131190476Y-104714761D02*
X131114285Y-104762380D01*
X130961904Y-104762380D01*
X130885714Y-104714761D01*
X130847619Y-104619523D01*
X130847619Y-104238571D01*
X130885714Y-104143333D01*
X130961904Y-104095714D01*
X131114285Y-104095714D01*
X131190476Y-104143333D01*
X131228571Y-104238571D01*
X131228571Y-104333809D01*
X130847619Y-104429047D01*
X131914285Y-104714761D02*
X131838095Y-104762380D01*
X131685714Y-104762380D01*
X131609523Y-104714761D01*
X131571428Y-104667142D01*
X131533333Y-104571904D01*
X131533333Y-104286190D01*
X131571428Y-104190952D01*
X131609523Y-104143333D01*
X131685714Y-104095714D01*
X131838095Y-104095714D01*
X131914285Y-104143333D01*
X132142857Y-104095714D02*
X132447619Y-104095714D01*
X132257142Y-103762380D02*
X132257142Y-104619523D01*
X132295238Y-104714761D01*
X132371428Y-104762380D01*
X132447619Y-104762380D01*
X132714285Y-104762380D02*
X132714285Y-104095714D01*
X132714285Y-104286190D02*
X132752380Y-104190952D01*
X132790476Y-104143333D01*
X132866666Y-104095714D01*
X132942857Y-104095714D01*
X133552380Y-104095714D02*
X133552380Y-104762380D01*
X133209523Y-104095714D02*
X133209523Y-104619523D01*
X133247619Y-104714761D01*
X133323809Y-104762380D01*
X133438095Y-104762380D01*
X133514285Y-104714761D01*
X133552380Y-104667142D01*
X133933333Y-104762380D02*
X133933333Y-104095714D01*
X133933333Y-104190952D02*
X133971428Y-104143333D01*
X134047619Y-104095714D01*
X134161904Y-104095714D01*
X134238095Y-104143333D01*
X134276190Y-104238571D01*
X134276190Y-104762380D01*
X134276190Y-104238571D02*
X134314285Y-104143333D01*
X134390476Y-104095714D01*
X134504761Y-104095714D01*
X134580952Y-104143333D01*
X134619047Y-104238571D01*
X134619047Y-104762380D01*
X135000000Y-104381428D02*
X135609523Y-104381428D01*
X135990476Y-104095714D02*
X135990476Y-105095714D01*
X135990476Y-104143333D02*
X136066666Y-104095714D01*
X136219047Y-104095714D01*
X136295238Y-104143333D01*
X136333333Y-104190952D01*
X136371428Y-104286190D01*
X136371428Y-104571904D01*
X136333333Y-104667142D01*
X136295238Y-104714761D01*
X136219047Y-104762380D01*
X136066666Y-104762380D01*
X135990476Y-104714761D01*
X136828571Y-104762380D02*
X136752380Y-104714761D01*
X136714285Y-104619523D01*
X136714285Y-103762380D01*
X137476190Y-104095714D02*
X137476190Y-104762380D01*
X137133333Y-104095714D02*
X137133333Y-104619523D01*
X137171428Y-104714761D01*
X137247619Y-104762380D01*
X137361904Y-104762380D01*
X137438095Y-104714761D01*
X137476190Y-104667142D01*
X138200000Y-104095714D02*
X138200000Y-104905238D01*
X138161904Y-105000476D01*
X138123809Y-105048095D01*
X138047619Y-105095714D01*
X137933333Y-105095714D01*
X137857142Y-105048095D01*
X138200000Y-104714761D02*
X138123809Y-104762380D01*
X137971428Y-104762380D01*
X137895238Y-104714761D01*
X137857142Y-104667142D01*
X137819047Y-104571904D01*
X137819047Y-104286190D01*
X137857142Y-104190952D01*
X137895238Y-104143333D01*
X137971428Y-104095714D01*
X138123809Y-104095714D01*
X138200000Y-104143333D01*
X138580952Y-104762380D02*
X138580952Y-104095714D01*
X138580952Y-103762380D02*
X138542857Y-103810000D01*
X138580952Y-103857619D01*
X138619047Y-103810000D01*
X138580952Y-103762380D01*
X138580952Y-103857619D01*
X138961904Y-104095714D02*
X138961904Y-104762380D01*
X138961904Y-104190952D02*
X139000000Y-104143333D01*
X139076190Y-104095714D01*
X139190476Y-104095714D01*
X139266666Y-104143333D01*
X139304761Y-104238571D01*
X139304761Y-104762380D01*
X139685714Y-104381428D02*
X140295238Y-104381428D01*
X140676190Y-104762380D02*
X140676190Y-104095714D01*
X140676190Y-104190952D02*
X140714285Y-104143333D01*
X140790476Y-104095714D01*
X140904761Y-104095714D01*
X140980952Y-104143333D01*
X141019047Y-104238571D01*
X141019047Y-104762380D01*
X141019047Y-104238571D02*
X141057142Y-104143333D01*
X141133333Y-104095714D01*
X141247619Y-104095714D01*
X141323809Y-104143333D01*
X141361904Y-104238571D01*
X141361904Y-104762380D01*
X141857142Y-104762380D02*
X141780952Y-104714761D01*
X141742857Y-104667142D01*
X141704761Y-104571904D01*
X141704761Y-104286190D01*
X141742857Y-104190952D01*
X141780952Y-104143333D01*
X141857142Y-104095714D01*
X141971428Y-104095714D01*
X142047619Y-104143333D01*
X142085714Y-104190952D01*
X142123809Y-104286190D01*
X142123809Y-104571904D01*
X142085714Y-104667142D01*
X142047619Y-104714761D01*
X141971428Y-104762380D01*
X141857142Y-104762380D01*
X142809523Y-104762380D02*
X142809523Y-103762380D01*
X142809523Y-104714761D02*
X142733333Y-104762380D01*
X142580952Y-104762380D01*
X142504761Y-104714761D01*
X142466666Y-104667142D01*
X142428571Y-104571904D01*
X142428571Y-104286190D01*
X142466666Y-104190952D01*
X142504761Y-104143333D01*
X142580952Y-104095714D01*
X142733333Y-104095714D01*
X142809523Y-104143333D01*
X143533333Y-104095714D02*
X143533333Y-104762380D01*
X143190476Y-104095714D02*
X143190476Y-104619523D01*
X143228571Y-104714761D01*
X143304761Y-104762380D01*
X143419047Y-104762380D01*
X143495238Y-104714761D01*
X143533333Y-104667142D01*
X144028571Y-104762380D02*
X143952380Y-104714761D01*
X143914285Y-104619523D01*
X143914285Y-103762380D01*
X144638095Y-104714761D02*
X144561904Y-104762380D01*
X144409523Y-104762380D01*
X144333333Y-104714761D01*
X144295238Y-104619523D01*
X144295238Y-104238571D01*
X144333333Y-104143333D01*
X144409523Y-104095714D01*
X144561904Y-104095714D01*
X144638095Y-104143333D01*
X144676190Y-104238571D01*
X144676190Y-104333809D01*
X144295238Y-104429047D01*
X145552380Y-104095714D02*
X145742857Y-104762380D01*
X145933333Y-104095714D01*
X146657142Y-104762380D02*
X146200000Y-104762380D01*
X146428571Y-104762380D02*
X146428571Y-103762380D01*
X146352380Y-103905238D01*
X146276190Y-104000476D01*
X146200000Y-104048095D01*
X147000000Y-104667142D02*
X147038095Y-104714761D01*
X147000000Y-104762380D01*
X146961904Y-104714761D01*
X147000000Y-104667142D01*
X147000000Y-104762380D01*
X147533333Y-103762380D02*
X147609523Y-103762380D01*
X147685714Y-103810000D01*
X147723809Y-103857619D01*
X147761904Y-103952857D01*
X147800000Y-104143333D01*
X147800000Y-104381428D01*
X147761904Y-104571904D01*
X147723809Y-104667142D01*
X147685714Y-104714761D01*
X147609523Y-104762380D01*
X147533333Y-104762380D01*
X147457142Y-104714761D01*
X147419047Y-104667142D01*
X147380952Y-104571904D01*
X147342857Y-104381428D01*
X147342857Y-104143333D01*
X147380952Y-103952857D01*
X147419047Y-103857619D01*
X147457142Y-103810000D01*
X147533333Y-103762380D01*
X148676190Y-103762380D02*
X149209523Y-103762380D01*
X148676190Y-104762380D01*
X149209523Y-104762380D01*
X149438095Y-103762380D02*
X149971428Y-104762380D01*
X149971428Y-103762380D02*
X149438095Y-104762380D01*
X150619047Y-104095714D02*
X150619047Y-104762380D01*
X150428571Y-103714761D02*
X150238095Y-104429047D01*
X150733333Y-104429047D01*
X151152380Y-104190952D02*
X151076190Y-104143333D01*
X151038095Y-104095714D01*
X151000000Y-104000476D01*
X151000000Y-103952857D01*
X151038095Y-103857619D01*
X151076190Y-103810000D01*
X151152380Y-103762380D01*
X151304761Y-103762380D01*
X151380952Y-103810000D01*
X151419047Y-103857619D01*
X151457142Y-103952857D01*
X151457142Y-104000476D01*
X151419047Y-104095714D01*
X151380952Y-104143333D01*
X151304761Y-104190952D01*
X151152380Y-104190952D01*
X151076190Y-104238571D01*
X151038095Y-104286190D01*
X151000000Y-104381428D01*
X151000000Y-104571904D01*
X151038095Y-104667142D01*
X151076190Y-104714761D01*
X151152380Y-104762380D01*
X151304761Y-104762380D01*
X151380952Y-104714761D01*
X151419047Y-104667142D01*
X151457142Y-104571904D01*
X151457142Y-104381428D01*
X151419047Y-104286190D01*
X151380952Y-104238571D01*
X151304761Y-104190952D01*
X152066666Y-104238571D02*
X152180952Y-104286190D01*
X152219047Y-104333809D01*
X152257142Y-104429047D01*
X152257142Y-104571904D01*
X152219047Y-104667142D01*
X152180952Y-104714761D01*
X152104761Y-104762380D01*
X151800000Y-104762380D01*
X151800000Y-103762380D01*
X152066666Y-103762380D01*
X152142857Y-103810000D01*
X152180952Y-103857619D01*
X152219047Y-103952857D01*
X152219047Y-104048095D01*
X152180952Y-104143333D01*
X152142857Y-104190952D01*
X152066666Y-104238571D01*
X151800000Y-104238571D01*
X152942857Y-104095714D02*
X152942857Y-104762380D01*
X152600000Y-104095714D02*
X152600000Y-104619523D01*
X152638095Y-104714761D01*
X152714285Y-104762380D01*
X152828571Y-104762380D01*
X152904761Y-104714761D01*
X152942857Y-104667142D01*
X153285714Y-104714761D02*
X153361904Y-104762380D01*
X153514285Y-104762380D01*
X153590476Y-104714761D01*
X153628571Y-104619523D01*
X153628571Y-104571904D01*
X153590476Y-104476666D01*
X153514285Y-104429047D01*
X153400000Y-104429047D01*
X153323809Y-104381428D01*
X153285714Y-104286190D01*
X153285714Y-104238571D01*
X153323809Y-104143333D01*
X153400000Y-104095714D01*
X153514285Y-104095714D01*
X153590476Y-104143333D01*
D10*
X146480476Y-131182380D02*
X147147142Y-131182380D01*
X146480476Y-132182380D01*
X147147142Y-132182380D01*
X148051904Y-132182380D02*
X147480476Y-132182380D01*
X147766190Y-132182380D02*
X147766190Y-131182380D01*
X147670952Y-131325238D01*
X147575714Y-131420476D01*
X147480476Y-131468095D01*
X111710000Y-125530000D02*
X111710000Y-130610000D01*
D12*
X111720000Y-121020000D02*
X111710000Y-125530000D01*
D10*
X182840000Y-121020000D02*
X111720000Y-121020000D01*
X182830000Y-130610000D02*
X182830000Y-125530000D01*
D12*
X182840000Y-120990000D02*
X182830000Y-125630000D01*
D10*
X111710000Y-130610000D02*
X182830000Y-130610000D01*
%LPC*%
D13*
X123160000Y-128170000D03*
X123190000Y-123190000D03*
X113030000Y-123190000D03*
X115570000Y-123190000D03*
X118110000Y-123190000D03*
X120650000Y-123190000D03*
X125730000Y-123190000D03*
X128270000Y-123190000D03*
X130810000Y-123190000D03*
X133350000Y-123190000D03*
X135890000Y-123190000D03*
X138430000Y-123190000D03*
X140970000Y-123190000D03*
X143510000Y-123190000D03*
X146050000Y-123190000D03*
X148590000Y-123190000D03*
X151130000Y-123190000D03*
X153670000Y-123190000D03*
X156210000Y-123190000D03*
X158750000Y-123190000D03*
X161290000Y-123190000D03*
X163830000Y-123190000D03*
X166370000Y-123190000D03*
X168910000Y-123190000D03*
X171450000Y-123190000D03*
X173990000Y-123190000D03*
X176530000Y-123190000D03*
X179070000Y-123190000D03*
X181610000Y-123190000D03*
X113000000Y-128170000D03*
X115540000Y-128170000D03*
X118080000Y-128170000D03*
X120620000Y-128170000D03*
X125700000Y-128170000D03*
X128240000Y-128170000D03*
X130780000Y-128170000D03*
X133320000Y-128170000D03*
X135860000Y-128170000D03*
X138400000Y-128170000D03*
X140940000Y-128170000D03*
X143480000Y-128170000D03*
X146020000Y-128170000D03*
X148560000Y-128170000D03*
X151100000Y-128170000D03*
X153640000Y-128170000D03*
X156180000Y-128170000D03*
X158720000Y-128170000D03*
X161260000Y-128170000D03*
X163800000Y-128170000D03*
X166340000Y-128170000D03*
X168880000Y-128170000D03*
X171420000Y-128170000D03*
X173960000Y-128170000D03*
X176500000Y-128170000D03*
X179040000Y-128170000D03*
X181580000Y-128170000D03*
D14*
X181570000Y-110580000D03*
D15*
X179030000Y-110580000D03*
X176490000Y-110580000D03*
X173950000Y-110580000D03*
X171410000Y-110580000D03*
X168870000Y-110580000D03*
X166330000Y-110580000D03*
X163790000Y-110580000D03*
X161250000Y-110580000D03*
X158710000Y-110580000D03*
X156170000Y-110580000D03*
X153630000Y-110580000D03*
X151090000Y-110580000D03*
X148550000Y-110580000D03*
X146010000Y-110580000D03*
X143470000Y-110580000D03*
X140930000Y-110580000D03*
X138390000Y-110580000D03*
X135850000Y-110580000D03*
X133310000Y-110580000D03*
X130770000Y-110580000D03*
X128230000Y-110580000D03*
X125690000Y-110580000D03*
X123150000Y-110580000D03*
X120610000Y-110580000D03*
X118070000Y-110580000D03*
X115530000Y-110580000D03*
X112990000Y-110580000D03*
D14*
X113075000Y-115570000D03*
D15*
X115615000Y-115570000D03*
X118155000Y-115570000D03*
X120695000Y-115570000D03*
X123235000Y-115570000D03*
X125775000Y-115570000D03*
X128315000Y-115570000D03*
X130855000Y-115570000D03*
X133395000Y-115570000D03*
X135935000Y-115570000D03*
X138475000Y-115570000D03*
X141015000Y-115570000D03*
X143555000Y-115570000D03*
X146095000Y-115570000D03*
X148635000Y-115570000D03*
X151175000Y-115570000D03*
X153715000Y-115570000D03*
X156255000Y-115570000D03*
X158795000Y-115570000D03*
X161335000Y-115570000D03*
X163875000Y-115570000D03*
X166415000Y-115570000D03*
X168955000Y-115570000D03*
X171495000Y-115570000D03*
X174035000Y-115570000D03*
X176575000Y-115570000D03*
X179115000Y-115570000D03*
X181655000Y-115570000D03*
M02*
