G04 #@! TF.GenerationSoftware,KiCad,Pcbnew,6.0.11-2627ca5db0~126~ubuntu22.04.1*
G04 #@! TF.CreationDate,2023-04-18T11:26:26+01:00*
G04 #@! TF.ProjectId,pim,70696d2e-6b69-4636-9164-5f7063625858,rev?*
G04 #@! TF.SameCoordinates,Original*
G04 #@! TF.FileFunction,Soldermask,Top*
G04 #@! TF.FilePolarity,Negative*
%FSLAX46Y46*%
G04 Gerber Fmt 4.6, Leading zero omitted, Abs format (unit mm)*
G04 Created by KiCad (PCBNEW 6.0.11-2627ca5db0~126~ubuntu22.04.1) date 2023-04-18 11:26:26*
%MOMM*%
%LPD*%
G01*
G04 APERTURE LIST*
%ADD10C,1.524000*%
%ADD11R,1.700000X1.700000*%
%ADD12O,1.700000X1.700000*%
G04 APERTURE END LIST*
D10*
X123160000Y-128170000D03*
X123190000Y-123190000D03*
X113030000Y-123190000D03*
X115570000Y-123190000D03*
X118110000Y-123190000D03*
X120650000Y-123190000D03*
X125730000Y-123190000D03*
X128270000Y-123190000D03*
X130810000Y-123190000D03*
X133350000Y-123190000D03*
X135890000Y-123190000D03*
X138430000Y-123190000D03*
X140970000Y-123190000D03*
X143510000Y-123190000D03*
X146050000Y-123190000D03*
X148590000Y-123190000D03*
X151130000Y-123190000D03*
X153670000Y-123190000D03*
X156210000Y-123190000D03*
X158750000Y-123190000D03*
X161290000Y-123190000D03*
X163830000Y-123190000D03*
X166370000Y-123190000D03*
X168910000Y-123190000D03*
X171450000Y-123190000D03*
X173990000Y-123190000D03*
X176530000Y-123190000D03*
X179070000Y-123190000D03*
X181610000Y-123190000D03*
X113000000Y-128170000D03*
X115540000Y-128170000D03*
X118080000Y-128170000D03*
X120620000Y-128170000D03*
X125700000Y-128170000D03*
X128240000Y-128170000D03*
X130780000Y-128170000D03*
X133320000Y-128170000D03*
X135860000Y-128170000D03*
X138400000Y-128170000D03*
X140940000Y-128170000D03*
X143480000Y-128170000D03*
X146020000Y-128170000D03*
X148560000Y-128170000D03*
X151100000Y-128170000D03*
X153640000Y-128170000D03*
X156180000Y-128170000D03*
X158720000Y-128170000D03*
X161260000Y-128170000D03*
X163800000Y-128170000D03*
X166340000Y-128170000D03*
X168880000Y-128170000D03*
X171420000Y-128170000D03*
X173960000Y-128170000D03*
X176500000Y-128170000D03*
X179040000Y-128170000D03*
X181580000Y-128170000D03*
D11*
X181570000Y-110580000D03*
D12*
X179030000Y-110580000D03*
X176490000Y-110580000D03*
X173950000Y-110580000D03*
X171410000Y-110580000D03*
X168870000Y-110580000D03*
X166330000Y-110580000D03*
X163790000Y-110580000D03*
X161250000Y-110580000D03*
X158710000Y-110580000D03*
X156170000Y-110580000D03*
X153630000Y-110580000D03*
X151090000Y-110580000D03*
X148550000Y-110580000D03*
X146010000Y-110580000D03*
X143470000Y-110580000D03*
X140930000Y-110580000D03*
X138390000Y-110580000D03*
X135850000Y-110580000D03*
X133310000Y-110580000D03*
X130770000Y-110580000D03*
X128230000Y-110580000D03*
X125690000Y-110580000D03*
X123150000Y-110580000D03*
X120610000Y-110580000D03*
X118070000Y-110580000D03*
X115530000Y-110580000D03*
X112990000Y-110580000D03*
D11*
X113075000Y-115570000D03*
D12*
X115615000Y-115570000D03*
X118155000Y-115570000D03*
X120695000Y-115570000D03*
X123235000Y-115570000D03*
X125775000Y-115570000D03*
X128315000Y-115570000D03*
X130855000Y-115570000D03*
X133395000Y-115570000D03*
X135935000Y-115570000D03*
X138475000Y-115570000D03*
X141015000Y-115570000D03*
X143555000Y-115570000D03*
X146095000Y-115570000D03*
X148635000Y-115570000D03*
X151175000Y-115570000D03*
X153715000Y-115570000D03*
X156255000Y-115570000D03*
X158795000Y-115570000D03*
X161335000Y-115570000D03*
X163875000Y-115570000D03*
X166415000Y-115570000D03*
X168955000Y-115570000D03*
X171495000Y-115570000D03*
X174035000Y-115570000D03*
X176575000Y-115570000D03*
X179115000Y-115570000D03*
X181655000Y-115570000D03*
M02*
