%TF.GenerationSoftware,KiCad,Pcbnew,6.0.11-2627ca5db0~126~ubuntu22.04.1*%
%TF.CreationDate,2023-04-18T11:26:34+01:00*%
%TF.ProjectId,pim,70696d2e-6b69-4636-9164-5f7063625858,rev?*%
%TF.SameCoordinates,Original*%
%TF.FileFunction,Drillmap*%
%TF.FilePolarity,Positive*%
%FSLAX45Y45*%
G04 Gerber Fmt 4.5, Leading zero omitted, Abs format (unit mm)*
G04 Created by KiCad (PCBNEW 6.0.11-2627ca5db0~126~ubuntu22.04.1) date 2023-04-18 11:26:34*
%MOMM*%
%LPD*%
G01*
G04 APERTURE LIST*
%ADD10C,0.100000*%
%ADD11C,0.200000*%
%ADD12C,0.076200*%
G04 APERTURE END LIST*
D10*
X18542000Y-10277000D02*
X10922000Y-10277000D01*
X10922000Y-10277000D02*
X10922000Y-13278000D01*
X10922000Y-13278000D02*
X18542000Y-13278000D01*
X18542000Y-13278000D02*
X18542000Y-10277000D01*
D11*
D12*
X11261900Y-12778900D02*
X11338100Y-12855100D01*
X11338100Y-12778900D02*
X11261900Y-12855100D01*
X11264900Y-12280900D02*
X11341100Y-12357100D01*
X11341100Y-12280900D02*
X11264900Y-12357100D01*
X11515900Y-12778900D02*
X11592100Y-12855100D01*
X11592100Y-12778900D02*
X11515900Y-12855100D01*
X11518900Y-12280900D02*
X11595100Y-12357100D01*
X11595100Y-12280900D02*
X11518900Y-12357100D01*
X11769900Y-12778900D02*
X11846100Y-12855100D01*
X11846100Y-12778900D02*
X11769900Y-12855100D01*
X11772900Y-12280900D02*
X11849100Y-12357100D01*
X11849100Y-12280900D02*
X11772900Y-12357100D01*
X12023900Y-12778900D02*
X12100100Y-12855100D01*
X12100100Y-12778900D02*
X12023900Y-12855100D01*
X12026900Y-12280900D02*
X12103100Y-12357100D01*
X12103100Y-12280900D02*
X12026900Y-12357100D01*
X12277900Y-12778900D02*
X12354100Y-12855100D01*
X12354100Y-12778900D02*
X12277900Y-12855100D01*
X12280900Y-12280900D02*
X12357100Y-12357100D01*
X12357100Y-12280900D02*
X12280900Y-12357100D01*
X12531900Y-12778900D02*
X12608100Y-12855100D01*
X12608100Y-12778900D02*
X12531900Y-12855100D01*
X12534900Y-12280900D02*
X12611100Y-12357100D01*
X12611100Y-12280900D02*
X12534900Y-12357100D01*
X12785900Y-12778900D02*
X12862100Y-12855100D01*
X12862100Y-12778900D02*
X12785900Y-12855100D01*
X12788900Y-12280900D02*
X12865100Y-12357100D01*
X12865100Y-12280900D02*
X12788900Y-12357100D01*
X13039900Y-12778900D02*
X13116100Y-12855100D01*
X13116100Y-12778900D02*
X13039900Y-12855100D01*
X13042900Y-12280900D02*
X13119100Y-12357100D01*
X13119100Y-12280900D02*
X13042900Y-12357100D01*
X13293900Y-12778900D02*
X13370100Y-12855100D01*
X13370100Y-12778900D02*
X13293900Y-12855100D01*
X13296900Y-12280900D02*
X13373100Y-12357100D01*
X13373100Y-12280900D02*
X13296900Y-12357100D01*
X13547900Y-12778900D02*
X13624100Y-12855100D01*
X13624100Y-12778900D02*
X13547900Y-12855100D01*
X13550900Y-12280900D02*
X13627100Y-12357100D01*
X13627100Y-12280900D02*
X13550900Y-12357100D01*
X13801900Y-12778900D02*
X13878100Y-12855100D01*
X13878100Y-12778900D02*
X13801900Y-12855100D01*
X13804900Y-12280900D02*
X13881100Y-12357100D01*
X13881100Y-12280900D02*
X13804900Y-12357100D01*
X14055900Y-12778900D02*
X14132100Y-12855100D01*
X14132100Y-12778900D02*
X14055900Y-12855100D01*
X14058900Y-12280900D02*
X14135100Y-12357100D01*
X14135100Y-12280900D02*
X14058900Y-12357100D01*
X14309900Y-12778900D02*
X14386100Y-12855100D01*
X14386100Y-12778900D02*
X14309900Y-12855100D01*
X14312900Y-12280900D02*
X14389100Y-12357100D01*
X14389100Y-12280900D02*
X14312900Y-12357100D01*
X14563900Y-12778900D02*
X14640100Y-12855100D01*
X14640100Y-12778900D02*
X14563900Y-12855100D01*
X14566900Y-12280900D02*
X14643100Y-12357100D01*
X14643100Y-12280900D02*
X14566900Y-12357100D01*
X14817900Y-12778900D02*
X14894100Y-12855100D01*
X14894100Y-12778900D02*
X14817900Y-12855100D01*
X14820900Y-12280900D02*
X14897100Y-12357100D01*
X14897100Y-12280900D02*
X14820900Y-12357100D01*
X15071900Y-12778900D02*
X15148100Y-12855100D01*
X15148100Y-12778900D02*
X15071900Y-12855100D01*
X15074900Y-12280900D02*
X15151100Y-12357100D01*
X15151100Y-12280900D02*
X15074900Y-12357100D01*
X15325900Y-12778900D02*
X15402100Y-12855100D01*
X15402100Y-12778900D02*
X15325900Y-12855100D01*
X15328900Y-12280900D02*
X15405100Y-12357100D01*
X15405100Y-12280900D02*
X15328900Y-12357100D01*
X15579900Y-12778900D02*
X15656100Y-12855100D01*
X15656100Y-12778900D02*
X15579900Y-12855100D01*
X15582900Y-12280900D02*
X15659100Y-12357100D01*
X15659100Y-12280900D02*
X15582900Y-12357100D01*
X15833900Y-12778900D02*
X15910100Y-12855100D01*
X15910100Y-12778900D02*
X15833900Y-12855100D01*
X15836900Y-12280900D02*
X15913100Y-12357100D01*
X15913100Y-12280900D02*
X15836900Y-12357100D01*
X16087900Y-12778900D02*
X16164100Y-12855100D01*
X16164100Y-12778900D02*
X16087900Y-12855100D01*
X16090900Y-12280900D02*
X16167100Y-12357100D01*
X16167100Y-12280900D02*
X16090900Y-12357100D01*
X16341900Y-12778900D02*
X16418100Y-12855100D01*
X16418100Y-12778900D02*
X16341900Y-12855100D01*
X16344900Y-12280900D02*
X16421100Y-12357100D01*
X16421100Y-12280900D02*
X16344900Y-12357100D01*
X16595900Y-12778900D02*
X16672100Y-12855100D01*
X16672100Y-12778900D02*
X16595900Y-12855100D01*
X16598900Y-12280900D02*
X16675100Y-12357100D01*
X16675100Y-12280900D02*
X16598900Y-12357100D01*
X16849900Y-12778900D02*
X16926100Y-12855100D01*
X16926100Y-12778900D02*
X16849900Y-12855100D01*
X16852900Y-12280900D02*
X16929100Y-12357100D01*
X16929100Y-12280900D02*
X16852900Y-12357100D01*
X17103900Y-12778900D02*
X17180100Y-12855100D01*
X17180100Y-12778900D02*
X17103900Y-12855100D01*
X17106900Y-12280900D02*
X17183100Y-12357100D01*
X17183100Y-12280900D02*
X17106900Y-12357100D01*
X17357900Y-12778900D02*
X17434100Y-12855100D01*
X17434100Y-12778900D02*
X17357900Y-12855100D01*
X17360900Y-12280900D02*
X17437100Y-12357100D01*
X17437100Y-12280900D02*
X17360900Y-12357100D01*
X17611900Y-12778900D02*
X17688100Y-12855100D01*
X17688100Y-12778900D02*
X17611900Y-12855100D01*
X17614900Y-12280900D02*
X17691100Y-12357100D01*
X17691100Y-12280900D02*
X17614900Y-12357100D01*
X17865900Y-12778900D02*
X17942100Y-12855100D01*
X17942100Y-12778900D02*
X17865900Y-12855100D01*
X17868900Y-12280900D02*
X17945100Y-12357100D01*
X17945100Y-12280900D02*
X17868900Y-12357100D01*
X18119900Y-12778900D02*
X18196100Y-12855100D01*
X18196100Y-12778900D02*
X18119900Y-12855100D01*
X18122900Y-12280900D02*
X18199100Y-12357100D01*
X18199100Y-12280900D02*
X18122900Y-12357100D01*
D10*
X11349000Y-11058000D02*
G75*
G03*
X11349000Y-11058000I-50000J0D01*
G01*
X11357500Y-11557000D02*
G75*
G03*
X11357500Y-11557000I-50000J0D01*
G01*
X11603000Y-11058000D02*
G75*
G03*
X11603000Y-11058000I-50000J0D01*
G01*
X11611500Y-11557000D02*
G75*
G03*
X11611500Y-11557000I-50000J0D01*
G01*
X11857000Y-11058000D02*
G75*
G03*
X11857000Y-11058000I-50000J0D01*
G01*
X11865500Y-11557000D02*
G75*
G03*
X11865500Y-11557000I-50000J0D01*
G01*
X12111000Y-11058000D02*
G75*
G03*
X12111000Y-11058000I-50000J0D01*
G01*
X12119500Y-11557000D02*
G75*
G03*
X12119500Y-11557000I-50000J0D01*
G01*
X12365000Y-11058000D02*
G75*
G03*
X12365000Y-11058000I-50000J0D01*
G01*
X12373500Y-11557000D02*
G75*
G03*
X12373500Y-11557000I-50000J0D01*
G01*
X12619000Y-11058000D02*
G75*
G03*
X12619000Y-11058000I-50000J0D01*
G01*
X12627500Y-11557000D02*
G75*
G03*
X12627500Y-11557000I-50000J0D01*
G01*
X12873000Y-11058000D02*
G75*
G03*
X12873000Y-11058000I-50000J0D01*
G01*
X12881500Y-11557000D02*
G75*
G03*
X12881500Y-11557000I-50000J0D01*
G01*
X13127000Y-11058000D02*
G75*
G03*
X13127000Y-11058000I-50000J0D01*
G01*
X13135500Y-11557000D02*
G75*
G03*
X13135500Y-11557000I-50000J0D01*
G01*
X13381000Y-11058000D02*
G75*
G03*
X13381000Y-11058000I-50000J0D01*
G01*
X13389500Y-11557000D02*
G75*
G03*
X13389500Y-11557000I-50000J0D01*
G01*
X13635000Y-11058000D02*
G75*
G03*
X13635000Y-11058000I-50000J0D01*
G01*
X13643500Y-11557000D02*
G75*
G03*
X13643500Y-11557000I-50000J0D01*
G01*
X13889000Y-11058000D02*
G75*
G03*
X13889000Y-11058000I-50000J0D01*
G01*
X13897500Y-11557000D02*
G75*
G03*
X13897500Y-11557000I-50000J0D01*
G01*
X14143000Y-11058000D02*
G75*
G03*
X14143000Y-11058000I-50000J0D01*
G01*
X14151500Y-11557000D02*
G75*
G03*
X14151500Y-11557000I-50000J0D01*
G01*
X14397000Y-11058000D02*
G75*
G03*
X14397000Y-11058000I-50000J0D01*
G01*
X14405500Y-11557000D02*
G75*
G03*
X14405500Y-11557000I-50000J0D01*
G01*
X14651000Y-11058000D02*
G75*
G03*
X14651000Y-11058000I-50000J0D01*
G01*
X14659500Y-11557000D02*
G75*
G03*
X14659500Y-11557000I-50000J0D01*
G01*
X14905000Y-11058000D02*
G75*
G03*
X14905000Y-11058000I-50000J0D01*
G01*
X14913500Y-11557000D02*
G75*
G03*
X14913500Y-11557000I-50000J0D01*
G01*
X15159000Y-11058000D02*
G75*
G03*
X15159000Y-11058000I-50000J0D01*
G01*
X15167500Y-11557000D02*
G75*
G03*
X15167500Y-11557000I-50000J0D01*
G01*
X15413000Y-11058000D02*
G75*
G03*
X15413000Y-11058000I-50000J0D01*
G01*
X15421500Y-11557000D02*
G75*
G03*
X15421500Y-11557000I-50000J0D01*
G01*
X15667000Y-11058000D02*
G75*
G03*
X15667000Y-11058000I-50000J0D01*
G01*
X15675500Y-11557000D02*
G75*
G03*
X15675500Y-11557000I-50000J0D01*
G01*
X15921000Y-11058000D02*
G75*
G03*
X15921000Y-11058000I-50000J0D01*
G01*
X15929500Y-11557000D02*
G75*
G03*
X15929500Y-11557000I-50000J0D01*
G01*
X16175000Y-11058000D02*
G75*
G03*
X16175000Y-11058000I-50000J0D01*
G01*
X16183500Y-11557000D02*
G75*
G03*
X16183500Y-11557000I-50000J0D01*
G01*
X16429000Y-11058000D02*
G75*
G03*
X16429000Y-11058000I-50000J0D01*
G01*
X16437500Y-11557000D02*
G75*
G03*
X16437500Y-11557000I-50000J0D01*
G01*
X16683000Y-11058000D02*
G75*
G03*
X16683000Y-11058000I-50000J0D01*
G01*
X16691500Y-11557000D02*
G75*
G03*
X16691500Y-11557000I-50000J0D01*
G01*
X16937000Y-11058000D02*
G75*
G03*
X16937000Y-11058000I-50000J0D01*
G01*
X16945500Y-11557000D02*
G75*
G03*
X16945500Y-11557000I-50000J0D01*
G01*
X17191000Y-11058000D02*
G75*
G03*
X17191000Y-11058000I-50000J0D01*
G01*
X17199500Y-11557000D02*
G75*
G03*
X17199500Y-11557000I-50000J0D01*
G01*
X17445000Y-11058000D02*
G75*
G03*
X17445000Y-11058000I-50000J0D01*
G01*
X17453500Y-11557000D02*
G75*
G03*
X17453500Y-11557000I-50000J0D01*
G01*
X17699000Y-11058000D02*
G75*
G03*
X17699000Y-11058000I-50000J0D01*
G01*
X17707500Y-11557000D02*
G75*
G03*
X17707500Y-11557000I-50000J0D01*
G01*
X17953000Y-11058000D02*
G75*
G03*
X17953000Y-11058000I-50000J0D01*
G01*
X17961500Y-11557000D02*
G75*
G03*
X17961500Y-11557000I-50000J0D01*
G01*
X18207000Y-11058000D02*
G75*
G03*
X18207000Y-11058000I-50000J0D01*
G01*
X18215500Y-11557000D02*
G75*
G03*
X18215500Y-11557000I-50000J0D01*
G01*
D11*
X11174619Y-13593476D02*
X11174619Y-13393476D01*
X11222238Y-13393476D01*
X11250809Y-13403000D01*
X11269857Y-13422048D01*
X11279381Y-13441095D01*
X11288905Y-13479190D01*
X11288905Y-13507762D01*
X11279381Y-13545857D01*
X11269857Y-13564905D01*
X11250809Y-13583952D01*
X11222238Y-13593476D01*
X11174619Y-13593476D01*
X11374619Y-13593476D02*
X11374619Y-13460143D01*
X11374619Y-13498238D02*
X11384143Y-13479190D01*
X11393667Y-13469667D01*
X11412714Y-13460143D01*
X11431762Y-13460143D01*
X11498428Y-13593476D02*
X11498428Y-13460143D01*
X11498428Y-13393476D02*
X11488905Y-13403000D01*
X11498428Y-13412524D01*
X11507952Y-13403000D01*
X11498428Y-13393476D01*
X11498428Y-13412524D01*
X11622238Y-13593476D02*
X11603190Y-13583952D01*
X11593667Y-13564905D01*
X11593667Y-13393476D01*
X11727000Y-13593476D02*
X11707952Y-13583952D01*
X11698428Y-13564905D01*
X11698428Y-13393476D01*
X11955571Y-13593476D02*
X11955571Y-13393476D01*
X12022238Y-13536333D01*
X12088905Y-13393476D01*
X12088905Y-13593476D01*
X12269857Y-13593476D02*
X12269857Y-13488714D01*
X12260333Y-13469667D01*
X12241286Y-13460143D01*
X12203190Y-13460143D01*
X12184143Y-13469667D01*
X12269857Y-13583952D02*
X12250809Y-13593476D01*
X12203190Y-13593476D01*
X12184143Y-13583952D01*
X12174619Y-13564905D01*
X12174619Y-13545857D01*
X12184143Y-13526809D01*
X12203190Y-13517286D01*
X12250809Y-13517286D01*
X12269857Y-13507762D01*
X12365095Y-13460143D02*
X12365095Y-13660143D01*
X12365095Y-13469667D02*
X12384143Y-13460143D01*
X12422238Y-13460143D01*
X12441286Y-13469667D01*
X12450809Y-13479190D01*
X12460333Y-13498238D01*
X12460333Y-13555381D01*
X12450809Y-13574428D01*
X12441286Y-13583952D01*
X12422238Y-13593476D01*
X12384143Y-13593476D01*
X12365095Y-13583952D01*
X12546048Y-13574428D02*
X12555571Y-13583952D01*
X12546048Y-13593476D01*
X12536524Y-13583952D01*
X12546048Y-13574428D01*
X12546048Y-13593476D01*
X12546048Y-13469667D02*
X12555571Y-13479190D01*
X12546048Y-13488714D01*
X12536524Y-13479190D01*
X12546048Y-13469667D01*
X12546048Y-13488714D01*
D12*
X10840800Y-13884900D02*
X10917000Y-13961100D01*
X10917000Y-13884900D02*
X10840800Y-13961100D01*
D11*
X11212714Y-13813476D02*
X11231762Y-13813476D01*
X11250809Y-13823000D01*
X11260333Y-13832524D01*
X11269857Y-13851571D01*
X11279381Y-13889667D01*
X11279381Y-13937286D01*
X11269857Y-13975381D01*
X11260333Y-13994428D01*
X11250809Y-14003952D01*
X11231762Y-14013476D01*
X11212714Y-14013476D01*
X11193667Y-14003952D01*
X11184143Y-13994428D01*
X11174619Y-13975381D01*
X11165095Y-13937286D01*
X11165095Y-13889667D01*
X11174619Y-13851571D01*
X11184143Y-13832524D01*
X11193667Y-13823000D01*
X11212714Y-13813476D01*
X11365095Y-13994428D02*
X11374619Y-14003952D01*
X11365095Y-14013476D01*
X11355571Y-14003952D01*
X11365095Y-13994428D01*
X11365095Y-14013476D01*
X11441286Y-13813476D02*
X11574619Y-13813476D01*
X11488905Y-14013476D01*
X11736524Y-13813476D02*
X11698428Y-13813476D01*
X11679381Y-13823000D01*
X11669857Y-13832524D01*
X11650809Y-13861095D01*
X11641286Y-13899190D01*
X11641286Y-13975381D01*
X11650809Y-13994428D01*
X11660333Y-14003952D01*
X11679381Y-14013476D01*
X11717476Y-14013476D01*
X11736524Y-14003952D01*
X11746048Y-13994428D01*
X11755571Y-13975381D01*
X11755571Y-13927762D01*
X11746048Y-13908714D01*
X11736524Y-13899190D01*
X11717476Y-13889667D01*
X11679381Y-13889667D01*
X11660333Y-13899190D01*
X11650809Y-13908714D01*
X11641286Y-13927762D01*
X11831762Y-13832524D02*
X11841286Y-13823000D01*
X11860333Y-13813476D01*
X11907952Y-13813476D01*
X11927000Y-13823000D01*
X11936524Y-13832524D01*
X11946048Y-13851571D01*
X11946048Y-13870619D01*
X11936524Y-13899190D01*
X11822238Y-14013476D01*
X11946048Y-14013476D01*
X12031762Y-14013476D02*
X12031762Y-13880143D01*
X12031762Y-13899190D02*
X12041286Y-13889667D01*
X12060333Y-13880143D01*
X12088905Y-13880143D01*
X12107952Y-13889667D01*
X12117476Y-13908714D01*
X12117476Y-14013476D01*
X12117476Y-13908714D02*
X12127000Y-13889667D01*
X12146048Y-13880143D01*
X12174619Y-13880143D01*
X12193667Y-13889667D01*
X12203190Y-13908714D01*
X12203190Y-14013476D01*
X12298428Y-14013476D02*
X12298428Y-13880143D01*
X12298428Y-13899190D02*
X12307952Y-13889667D01*
X12327000Y-13880143D01*
X12355571Y-13880143D01*
X12374619Y-13889667D01*
X12384143Y-13908714D01*
X12384143Y-14013476D01*
X12384143Y-13908714D02*
X12393667Y-13889667D01*
X12412714Y-13880143D01*
X12441286Y-13880143D01*
X12460333Y-13889667D01*
X12469857Y-13908714D01*
X12469857Y-14013476D01*
X12860333Y-13803952D02*
X12688905Y-14061095D01*
X13117476Y-13813476D02*
X13136524Y-13813476D01*
X13155571Y-13823000D01*
X13165095Y-13832524D01*
X13174619Y-13851571D01*
X13184143Y-13889667D01*
X13184143Y-13937286D01*
X13174619Y-13975381D01*
X13165095Y-13994428D01*
X13155571Y-14003952D01*
X13136524Y-14013476D01*
X13117476Y-14013476D01*
X13098428Y-14003952D01*
X13088905Y-13994428D01*
X13079381Y-13975381D01*
X13069857Y-13937286D01*
X13069857Y-13889667D01*
X13079381Y-13851571D01*
X13088905Y-13832524D01*
X13098428Y-13823000D01*
X13117476Y-13813476D01*
X13269857Y-13994428D02*
X13279381Y-14003952D01*
X13269857Y-14013476D01*
X13260333Y-14003952D01*
X13269857Y-13994428D01*
X13269857Y-14013476D01*
X13403190Y-13813476D02*
X13422238Y-13813476D01*
X13441286Y-13823000D01*
X13450809Y-13832524D01*
X13460333Y-13851571D01*
X13469857Y-13889667D01*
X13469857Y-13937286D01*
X13460333Y-13975381D01*
X13450809Y-13994428D01*
X13441286Y-14003952D01*
X13422238Y-14013476D01*
X13403190Y-14013476D01*
X13384143Y-14003952D01*
X13374619Y-13994428D01*
X13365095Y-13975381D01*
X13355571Y-13937286D01*
X13355571Y-13889667D01*
X13365095Y-13851571D01*
X13374619Y-13832524D01*
X13384143Y-13823000D01*
X13403190Y-13813476D01*
X13536524Y-13813476D02*
X13660333Y-13813476D01*
X13593667Y-13889667D01*
X13622238Y-13889667D01*
X13641286Y-13899190D01*
X13650809Y-13908714D01*
X13660333Y-13927762D01*
X13660333Y-13975381D01*
X13650809Y-13994428D01*
X13641286Y-14003952D01*
X13622238Y-14013476D01*
X13565095Y-14013476D01*
X13546048Y-14003952D01*
X13536524Y-13994428D01*
X13784143Y-13813476D02*
X13803190Y-13813476D01*
X13822238Y-13823000D01*
X13831762Y-13832524D01*
X13841286Y-13851571D01*
X13850809Y-13889667D01*
X13850809Y-13937286D01*
X13841286Y-13975381D01*
X13831762Y-13994428D01*
X13822238Y-14003952D01*
X13803190Y-14013476D01*
X13784143Y-14013476D01*
X13765095Y-14003952D01*
X13755571Y-13994428D01*
X13746048Y-13975381D01*
X13736524Y-13937286D01*
X13736524Y-13889667D01*
X13746048Y-13851571D01*
X13755571Y-13832524D01*
X13765095Y-13823000D01*
X13784143Y-13813476D01*
X13974619Y-13813476D02*
X13993667Y-13813476D01*
X14012714Y-13823000D01*
X14022238Y-13832524D01*
X14031762Y-13851571D01*
X14041286Y-13889667D01*
X14041286Y-13937286D01*
X14031762Y-13975381D01*
X14022238Y-13994428D01*
X14012714Y-14003952D01*
X13993667Y-14013476D01*
X13974619Y-14013476D01*
X13955571Y-14003952D01*
X13946048Y-13994428D01*
X13936524Y-13975381D01*
X13927000Y-13937286D01*
X13927000Y-13889667D01*
X13936524Y-13851571D01*
X13946048Y-13832524D01*
X13955571Y-13823000D01*
X13974619Y-13813476D01*
X14117476Y-13813476D02*
X14117476Y-13851571D01*
X14193667Y-13813476D02*
X14193667Y-13851571D01*
X14488905Y-14089667D02*
X14479381Y-14080143D01*
X14460333Y-14051571D01*
X14450809Y-14032524D01*
X14441286Y-14003952D01*
X14431762Y-13956333D01*
X14431762Y-13918238D01*
X14441286Y-13870619D01*
X14450809Y-13842048D01*
X14460333Y-13823000D01*
X14479381Y-13794428D01*
X14488905Y-13784905D01*
X14660333Y-13813476D02*
X14565095Y-13813476D01*
X14555571Y-13908714D01*
X14565095Y-13899190D01*
X14584143Y-13889667D01*
X14631762Y-13889667D01*
X14650809Y-13899190D01*
X14660333Y-13908714D01*
X14669857Y-13927762D01*
X14669857Y-13975381D01*
X14660333Y-13994428D01*
X14650809Y-14003952D01*
X14631762Y-14013476D01*
X14584143Y-14013476D01*
X14565095Y-14003952D01*
X14555571Y-13994428D01*
X14841286Y-13813476D02*
X14803190Y-13813476D01*
X14784143Y-13823000D01*
X14774619Y-13832524D01*
X14755571Y-13861095D01*
X14746048Y-13899190D01*
X14746048Y-13975381D01*
X14755571Y-13994428D01*
X14765095Y-14003952D01*
X14784143Y-14013476D01*
X14822238Y-14013476D01*
X14841286Y-14003952D01*
X14850809Y-13994428D01*
X14860333Y-13975381D01*
X14860333Y-13927762D01*
X14850809Y-13908714D01*
X14841286Y-13899190D01*
X14822238Y-13889667D01*
X14784143Y-13889667D01*
X14765095Y-13899190D01*
X14755571Y-13908714D01*
X14746048Y-13927762D01*
X15098428Y-14013476D02*
X15098428Y-13813476D01*
X15184143Y-14013476D02*
X15184143Y-13908714D01*
X15174619Y-13889667D01*
X15155571Y-13880143D01*
X15127000Y-13880143D01*
X15107952Y-13889667D01*
X15098428Y-13899190D01*
X15307952Y-14013476D02*
X15288905Y-14003952D01*
X15279381Y-13994428D01*
X15269857Y-13975381D01*
X15269857Y-13918238D01*
X15279381Y-13899190D01*
X15288905Y-13889667D01*
X15307952Y-13880143D01*
X15336524Y-13880143D01*
X15355571Y-13889667D01*
X15365095Y-13899190D01*
X15374619Y-13918238D01*
X15374619Y-13975381D01*
X15365095Y-13994428D01*
X15355571Y-14003952D01*
X15336524Y-14013476D01*
X15307952Y-14013476D01*
X15488905Y-14013476D02*
X15469857Y-14003952D01*
X15460333Y-13984905D01*
X15460333Y-13813476D01*
X15641286Y-14003952D02*
X15622238Y-14013476D01*
X15584143Y-14013476D01*
X15565095Y-14003952D01*
X15555571Y-13984905D01*
X15555571Y-13908714D01*
X15565095Y-13889667D01*
X15584143Y-13880143D01*
X15622238Y-13880143D01*
X15641286Y-13889667D01*
X15650809Y-13908714D01*
X15650809Y-13927762D01*
X15555571Y-13946809D01*
X15727000Y-14003952D02*
X15746048Y-14013476D01*
X15784143Y-14013476D01*
X15803190Y-14003952D01*
X15812714Y-13984905D01*
X15812714Y-13975381D01*
X15803190Y-13956333D01*
X15784143Y-13946809D01*
X15755571Y-13946809D01*
X15736524Y-13937286D01*
X15727000Y-13918238D01*
X15727000Y-13908714D01*
X15736524Y-13889667D01*
X15755571Y-13880143D01*
X15784143Y-13880143D01*
X15803190Y-13889667D01*
X15879381Y-14089667D02*
X15888905Y-14080143D01*
X15907952Y-14051571D01*
X15917476Y-14032524D01*
X15927000Y-14003952D01*
X15936524Y-13956333D01*
X15936524Y-13918238D01*
X15927000Y-13870619D01*
X15917476Y-13842048D01*
X15907952Y-13823000D01*
X15888905Y-13794428D01*
X15879381Y-13784905D01*
D10*
X10917000Y-14187000D02*
G75*
G03*
X10917000Y-14187000I-50000J0D01*
G01*
D11*
X11279381Y-14277476D02*
X11165095Y-14277476D01*
X11222238Y-14277476D02*
X11222238Y-14077476D01*
X11203190Y-14106048D01*
X11184143Y-14125095D01*
X11165095Y-14134619D01*
X11365095Y-14258428D02*
X11374619Y-14267952D01*
X11365095Y-14277476D01*
X11355571Y-14267952D01*
X11365095Y-14258428D01*
X11365095Y-14277476D01*
X11498428Y-14077476D02*
X11517476Y-14077476D01*
X11536524Y-14087000D01*
X11546048Y-14096524D01*
X11555571Y-14115571D01*
X11565095Y-14153667D01*
X11565095Y-14201286D01*
X11555571Y-14239381D01*
X11546048Y-14258428D01*
X11536524Y-14267952D01*
X11517476Y-14277476D01*
X11498428Y-14277476D01*
X11479381Y-14267952D01*
X11469857Y-14258428D01*
X11460333Y-14239381D01*
X11450809Y-14201286D01*
X11450809Y-14153667D01*
X11460333Y-14115571D01*
X11469857Y-14096524D01*
X11479381Y-14087000D01*
X11498428Y-14077476D01*
X11688905Y-14077476D02*
X11707952Y-14077476D01*
X11727000Y-14087000D01*
X11736524Y-14096524D01*
X11746048Y-14115571D01*
X11755571Y-14153667D01*
X11755571Y-14201286D01*
X11746048Y-14239381D01*
X11736524Y-14258428D01*
X11727000Y-14267952D01*
X11707952Y-14277476D01*
X11688905Y-14277476D01*
X11669857Y-14267952D01*
X11660333Y-14258428D01*
X11650809Y-14239381D01*
X11641286Y-14201286D01*
X11641286Y-14153667D01*
X11650809Y-14115571D01*
X11660333Y-14096524D01*
X11669857Y-14087000D01*
X11688905Y-14077476D01*
X11879381Y-14077476D02*
X11898428Y-14077476D01*
X11917476Y-14087000D01*
X11927000Y-14096524D01*
X11936524Y-14115571D01*
X11946048Y-14153667D01*
X11946048Y-14201286D01*
X11936524Y-14239381D01*
X11927000Y-14258428D01*
X11917476Y-14267952D01*
X11898428Y-14277476D01*
X11879381Y-14277476D01*
X11860333Y-14267952D01*
X11850809Y-14258428D01*
X11841286Y-14239381D01*
X11831762Y-14201286D01*
X11831762Y-14153667D01*
X11841286Y-14115571D01*
X11850809Y-14096524D01*
X11860333Y-14087000D01*
X11879381Y-14077476D01*
X12031762Y-14277476D02*
X12031762Y-14144143D01*
X12031762Y-14163190D02*
X12041286Y-14153667D01*
X12060333Y-14144143D01*
X12088905Y-14144143D01*
X12107952Y-14153667D01*
X12117476Y-14172714D01*
X12117476Y-14277476D01*
X12117476Y-14172714D02*
X12127000Y-14153667D01*
X12146048Y-14144143D01*
X12174619Y-14144143D01*
X12193667Y-14153667D01*
X12203190Y-14172714D01*
X12203190Y-14277476D01*
X12298428Y-14277476D02*
X12298428Y-14144143D01*
X12298428Y-14163190D02*
X12307952Y-14153667D01*
X12327000Y-14144143D01*
X12355571Y-14144143D01*
X12374619Y-14153667D01*
X12384143Y-14172714D01*
X12384143Y-14277476D01*
X12384143Y-14172714D02*
X12393667Y-14153667D01*
X12412714Y-14144143D01*
X12441286Y-14144143D01*
X12460333Y-14153667D01*
X12469857Y-14172714D01*
X12469857Y-14277476D01*
X12860333Y-14067952D02*
X12688905Y-14325095D01*
X13117476Y-14077476D02*
X13136524Y-14077476D01*
X13155571Y-14087000D01*
X13165095Y-14096524D01*
X13174619Y-14115571D01*
X13184143Y-14153667D01*
X13184143Y-14201286D01*
X13174619Y-14239381D01*
X13165095Y-14258428D01*
X13155571Y-14267952D01*
X13136524Y-14277476D01*
X13117476Y-14277476D01*
X13098428Y-14267952D01*
X13088905Y-14258428D01*
X13079381Y-14239381D01*
X13069857Y-14201286D01*
X13069857Y-14153667D01*
X13079381Y-14115571D01*
X13088905Y-14096524D01*
X13098428Y-14087000D01*
X13117476Y-14077476D01*
X13269857Y-14258428D02*
X13279381Y-14267952D01*
X13269857Y-14277476D01*
X13260333Y-14267952D01*
X13269857Y-14258428D01*
X13269857Y-14277476D01*
X13403190Y-14077476D02*
X13422238Y-14077476D01*
X13441286Y-14087000D01*
X13450809Y-14096524D01*
X13460333Y-14115571D01*
X13469857Y-14153667D01*
X13469857Y-14201286D01*
X13460333Y-14239381D01*
X13450809Y-14258428D01*
X13441286Y-14267952D01*
X13422238Y-14277476D01*
X13403190Y-14277476D01*
X13384143Y-14267952D01*
X13374619Y-14258428D01*
X13365095Y-14239381D01*
X13355571Y-14201286D01*
X13355571Y-14153667D01*
X13365095Y-14115571D01*
X13374619Y-14096524D01*
X13384143Y-14087000D01*
X13403190Y-14077476D01*
X13536524Y-14077476D02*
X13660333Y-14077476D01*
X13593667Y-14153667D01*
X13622238Y-14153667D01*
X13641286Y-14163190D01*
X13650809Y-14172714D01*
X13660333Y-14191762D01*
X13660333Y-14239381D01*
X13650809Y-14258428D01*
X13641286Y-14267952D01*
X13622238Y-14277476D01*
X13565095Y-14277476D01*
X13546048Y-14267952D01*
X13536524Y-14258428D01*
X13755571Y-14277476D02*
X13793667Y-14277476D01*
X13812714Y-14267952D01*
X13822238Y-14258428D01*
X13841286Y-14229857D01*
X13850809Y-14191762D01*
X13850809Y-14115571D01*
X13841286Y-14096524D01*
X13831762Y-14087000D01*
X13812714Y-14077476D01*
X13774619Y-14077476D01*
X13755571Y-14087000D01*
X13746048Y-14096524D01*
X13736524Y-14115571D01*
X13736524Y-14163190D01*
X13746048Y-14182238D01*
X13755571Y-14191762D01*
X13774619Y-14201286D01*
X13812714Y-14201286D01*
X13831762Y-14191762D01*
X13841286Y-14182238D01*
X13850809Y-14163190D01*
X14022238Y-14144143D02*
X14022238Y-14277476D01*
X13974619Y-14067952D02*
X13927000Y-14210809D01*
X14050809Y-14210809D01*
X14117476Y-14077476D02*
X14117476Y-14115571D01*
X14193667Y-14077476D02*
X14193667Y-14115571D01*
X14488905Y-14353667D02*
X14479381Y-14344143D01*
X14460333Y-14315571D01*
X14450809Y-14296524D01*
X14441286Y-14267952D01*
X14431762Y-14220333D01*
X14431762Y-14182238D01*
X14441286Y-14134619D01*
X14450809Y-14106048D01*
X14460333Y-14087000D01*
X14479381Y-14058428D01*
X14488905Y-14048905D01*
X14660333Y-14077476D02*
X14565095Y-14077476D01*
X14555571Y-14172714D01*
X14565095Y-14163190D01*
X14584143Y-14153667D01*
X14631762Y-14153667D01*
X14650809Y-14163190D01*
X14660333Y-14172714D01*
X14669857Y-14191762D01*
X14669857Y-14239381D01*
X14660333Y-14258428D01*
X14650809Y-14267952D01*
X14631762Y-14277476D01*
X14584143Y-14277476D01*
X14565095Y-14267952D01*
X14555571Y-14258428D01*
X14841286Y-14077476D02*
X14803190Y-14077476D01*
X14784143Y-14087000D01*
X14774619Y-14096524D01*
X14755571Y-14125095D01*
X14746048Y-14163190D01*
X14746048Y-14239381D01*
X14755571Y-14258428D01*
X14765095Y-14267952D01*
X14784143Y-14277476D01*
X14822238Y-14277476D01*
X14841286Y-14267952D01*
X14850809Y-14258428D01*
X14860333Y-14239381D01*
X14860333Y-14191762D01*
X14850809Y-14172714D01*
X14841286Y-14163190D01*
X14822238Y-14153667D01*
X14784143Y-14153667D01*
X14765095Y-14163190D01*
X14755571Y-14172714D01*
X14746048Y-14191762D01*
X15098428Y-14277476D02*
X15098428Y-14077476D01*
X15184143Y-14277476D02*
X15184143Y-14172714D01*
X15174619Y-14153667D01*
X15155571Y-14144143D01*
X15127000Y-14144143D01*
X15107952Y-14153667D01*
X15098428Y-14163190D01*
X15307952Y-14277476D02*
X15288905Y-14267952D01*
X15279381Y-14258428D01*
X15269857Y-14239381D01*
X15269857Y-14182238D01*
X15279381Y-14163190D01*
X15288905Y-14153667D01*
X15307952Y-14144143D01*
X15336524Y-14144143D01*
X15355571Y-14153667D01*
X15365095Y-14163190D01*
X15374619Y-14182238D01*
X15374619Y-14239381D01*
X15365095Y-14258428D01*
X15355571Y-14267952D01*
X15336524Y-14277476D01*
X15307952Y-14277476D01*
X15488905Y-14277476D02*
X15469857Y-14267952D01*
X15460333Y-14248905D01*
X15460333Y-14077476D01*
X15641286Y-14267952D02*
X15622238Y-14277476D01*
X15584143Y-14277476D01*
X15565095Y-14267952D01*
X15555571Y-14248905D01*
X15555571Y-14172714D01*
X15565095Y-14153667D01*
X15584143Y-14144143D01*
X15622238Y-14144143D01*
X15641286Y-14153667D01*
X15650809Y-14172714D01*
X15650809Y-14191762D01*
X15555571Y-14210809D01*
X15727000Y-14267952D02*
X15746048Y-14277476D01*
X15784143Y-14277476D01*
X15803190Y-14267952D01*
X15812714Y-14248905D01*
X15812714Y-14239381D01*
X15803190Y-14220333D01*
X15784143Y-14210809D01*
X15755571Y-14210809D01*
X15736524Y-14201286D01*
X15727000Y-14182238D01*
X15727000Y-14172714D01*
X15736524Y-14153667D01*
X15755571Y-14144143D01*
X15784143Y-14144143D01*
X15803190Y-14153667D01*
X15879381Y-14353667D02*
X15888905Y-14344143D01*
X15907952Y-14315571D01*
X15917476Y-14296524D01*
X15927000Y-14267952D01*
X15936524Y-14220333D01*
X15936524Y-14182238D01*
X15927000Y-14134619D01*
X15917476Y-14106048D01*
X15907952Y-14087000D01*
X15888905Y-14058428D01*
X15879381Y-14048905D01*
M02*
