G04 #@! TF.GenerationSoftware,KiCad,Pcbnew,6.0.11-2627ca5db0~126~ubuntu22.04.1*
G04 #@! TF.CreationDate,2023-04-18T11:26:26+01:00*
G04 #@! TF.ProjectId,pim,70696d2e-6b69-4636-9164-5f7063625858,rev?*
G04 #@! TF.SameCoordinates,Original*
G04 #@! TF.FileFunction,Legend,Bot*
G04 #@! TF.FilePolarity,Positive*
%FSLAX46Y46*%
G04 Gerber Fmt 4.6, Leading zero omitted, Abs format (unit mm)*
G04 Created by KiCad (PCBNEW 6.0.11-2627ca5db0~126~ubuntu22.04.1) date 2023-04-18 11:26:26*
%MOMM*%
%LPD*%
G01*
G04 APERTURE LIST*
%ADD10C,0.150000*%
%ADD11C,0.120000*%
%ADD12C,1.524000*%
%ADD13R,1.700000X1.700000*%
%ADD14O,1.700000X1.700000*%
G04 APERTURE END LIST*
D10*
X124180000Y-116550000D02*
X122030000Y-116550000D01*
X122030000Y-116550000D02*
X122030000Y-109540000D01*
X122030000Y-109540000D02*
X124180000Y-109540000D01*
X124180000Y-109540000D02*
X124180000Y-116550000D01*
G36*
X124180000Y-116550000D02*
G01*
X122030000Y-116550000D01*
X122030000Y-109540000D01*
X124180000Y-109540000D01*
X124180000Y-116550000D01*
G37*
X124892816Y-108462579D02*
X125599923Y-107755473D01*
X125431564Y-107587114D01*
X125296877Y-107519770D01*
X125162190Y-107519770D01*
X125061175Y-107553442D01*
X124892816Y-107654457D01*
X124791801Y-107755473D01*
X124690786Y-107923831D01*
X124657114Y-108024847D01*
X124657114Y-108159534D01*
X124724457Y-108294221D01*
X124892816Y-108462579D01*
X124758129Y-106913679D02*
X124690786Y-106846335D01*
X124589770Y-106812664D01*
X124522427Y-106812664D01*
X124421412Y-106846335D01*
X124253053Y-106947351D01*
X124084694Y-107115709D01*
X123983679Y-107284068D01*
X123950007Y-107385083D01*
X123950007Y-107452427D01*
X123983679Y-107553442D01*
X124051022Y-107620786D01*
X124152038Y-107654457D01*
X124219381Y-107654457D01*
X124320396Y-107620786D01*
X124488755Y-107519770D01*
X124657114Y-107351412D01*
X124758129Y-107183053D01*
X124791801Y-107082038D01*
X124791801Y-107014694D01*
X124758129Y-106913679D01*
X139025931Y-119091633D02*
X138689213Y-118754916D01*
X138891244Y-119361007D02*
X139362648Y-118418198D01*
X138419839Y-118889603D01*
X138857572Y-118047809D02*
X138857572Y-117980465D01*
X138823900Y-117879450D01*
X138655542Y-117711091D01*
X138554526Y-117677420D01*
X138487183Y-117677420D01*
X138386168Y-117711091D01*
X138318824Y-117778435D01*
X138251481Y-117913122D01*
X138251481Y-118721244D01*
X137813748Y-118283511D01*
X146452953Y-121912717D02*
X147160060Y-121205610D01*
X146688656Y-120734205D02*
X146553969Y-120599518D01*
X146452953Y-120565847D01*
X146318266Y-120565847D01*
X146149908Y-120666862D01*
X145914205Y-120902564D01*
X145813190Y-121070923D01*
X145813190Y-121205610D01*
X145846862Y-121306625D01*
X145981549Y-121441312D01*
X146082564Y-121474984D01*
X146217251Y-121474984D01*
X146385610Y-121373969D01*
X146621312Y-121138266D01*
X146722327Y-120969908D01*
X146722327Y-120835221D01*
X146688656Y-120734205D01*
X144971396Y-120431160D02*
X145543816Y-120330144D01*
X145375457Y-120835221D02*
X146082564Y-120128114D01*
X145813190Y-119858740D01*
X145712175Y-119825068D01*
X145644831Y-119825068D01*
X145543816Y-119858740D01*
X145442801Y-119959755D01*
X145409129Y-120060770D01*
X145409129Y-120128114D01*
X145442801Y-120229129D01*
X145712175Y-120498503D01*
X144129603Y-119724053D02*
X144230618Y-119757725D01*
X144365305Y-119757725D01*
X144567335Y-119757725D01*
X144668351Y-119791396D01*
X144735694Y-119858740D01*
X144533664Y-119993427D02*
X144634679Y-120027099D01*
X144769366Y-120027099D01*
X144937725Y-119926083D01*
X145173427Y-119690381D01*
X145274442Y-119522022D01*
X145274442Y-119387335D01*
X145240770Y-119286320D01*
X145106083Y-119151633D01*
X145005068Y-119117961D01*
X144870381Y-119117961D01*
X144702022Y-119218977D01*
X144466320Y-119454679D01*
X144365305Y-119623038D01*
X144365305Y-119757725D01*
X144398977Y-119858740D01*
X144533664Y-119993427D01*
X144230618Y-118343511D02*
X144331633Y-118377183D01*
X144432648Y-118478198D01*
X144499992Y-118612885D01*
X144499992Y-118747572D01*
X144466320Y-118848587D01*
X144365305Y-119016946D01*
X144264290Y-119117961D01*
X144095931Y-119218977D01*
X143994916Y-119252648D01*
X143860229Y-119252648D01*
X143725542Y-119185305D01*
X143658198Y-119117961D01*
X143590855Y-118983274D01*
X143590855Y-118915931D01*
X143826557Y-118680229D01*
X143961244Y-118814916D01*
X143590855Y-118309839D02*
X143355152Y-118074137D01*
X142883748Y-118343511D02*
X143220465Y-118680229D01*
X143927572Y-117973122D01*
X143590855Y-117636404D01*
X158647266Y-107862816D02*
X157771801Y-108401564D01*
X158142190Y-107761801D01*
X157502427Y-108132190D01*
X158041175Y-107256725D01*
X156660633Y-107290396D02*
X157233053Y-107189381D01*
X157064694Y-107694457D02*
X157771801Y-106987351D01*
X157502427Y-106717977D01*
X157401412Y-106684305D01*
X157334068Y-106684305D01*
X157233053Y-106717977D01*
X157132038Y-106818992D01*
X157098366Y-106920007D01*
X157098366Y-106987351D01*
X157132038Y-107088366D01*
X157401412Y-107357740D01*
X136485931Y-119111633D02*
X136149213Y-118774916D01*
X136351244Y-119381007D02*
X136822648Y-118438198D01*
X135879839Y-118909603D01*
X135273748Y-118303511D02*
X135677809Y-118707572D01*
X135475778Y-118505542D02*
X136182885Y-117798435D01*
X136149213Y-117966794D01*
X136149213Y-118101481D01*
X136182885Y-118202496D01*
X137552816Y-108492579D02*
X138259923Y-107785473D01*
X138091564Y-107617114D01*
X137956877Y-107549770D01*
X137822190Y-107549770D01*
X137721175Y-107583442D01*
X137552816Y-107684457D01*
X137451801Y-107785473D01*
X137350786Y-107953831D01*
X137317114Y-108054847D01*
X137317114Y-108189534D01*
X137384457Y-108324221D01*
X137552816Y-108492579D01*
X137620160Y-107145709D02*
X137182427Y-106707977D01*
X137148755Y-107213053D01*
X137047740Y-107112038D01*
X136946725Y-107078366D01*
X136879381Y-107078366D01*
X136778366Y-107112038D01*
X136610007Y-107280396D01*
X136576335Y-107381412D01*
X136576335Y-107448755D01*
X136610007Y-107549770D01*
X136812038Y-107751801D01*
X136913053Y-107785473D01*
X136980396Y-107785473D01*
X127442816Y-108462579D02*
X128149923Y-107755473D01*
X127981564Y-107587114D01*
X127846877Y-107519770D01*
X127712190Y-107519770D01*
X127611175Y-107553442D01*
X127442816Y-107654457D01*
X127341801Y-107755473D01*
X127240786Y-107923831D01*
X127207114Y-108024847D01*
X127207114Y-108159534D01*
X127274457Y-108294221D01*
X127442816Y-108462579D01*
X126365320Y-107385083D02*
X126769381Y-107789144D01*
X126567351Y-107587114D02*
X127274457Y-106880007D01*
X127240786Y-107048366D01*
X127240786Y-107183053D01*
X127274457Y-107284068D01*
X163135457Y-120745221D02*
X163707877Y-120644205D01*
X163539518Y-121149282D02*
X164246625Y-120442175D01*
X163977251Y-120172801D01*
X163876236Y-120139129D01*
X163808892Y-120139129D01*
X163707877Y-120172801D01*
X163606862Y-120273816D01*
X163573190Y-120374831D01*
X163573190Y-120442175D01*
X163606862Y-120543190D01*
X163876236Y-120812564D01*
X163202801Y-120071786D02*
X162967099Y-119836083D01*
X162495694Y-120105457D02*
X162832412Y-120442175D01*
X163539518Y-119735068D01*
X163202801Y-119398351D01*
X162259992Y-119802412D02*
X162125305Y-119735068D01*
X161956946Y-119566709D01*
X161923274Y-119465694D01*
X161923274Y-119398351D01*
X161956946Y-119297335D01*
X162024290Y-119229992D01*
X162125305Y-119196320D01*
X162192648Y-119196320D01*
X162293664Y-119229992D01*
X162462022Y-119331007D01*
X162563038Y-119364679D01*
X162630381Y-119364679D01*
X162731396Y-119331007D01*
X162798740Y-119263664D01*
X162832412Y-119162648D01*
X162832412Y-119095305D01*
X162798740Y-118994290D01*
X162630381Y-118825931D01*
X162495694Y-118758587D01*
X161889603Y-118758587D02*
X161653900Y-118522885D01*
X161182496Y-118792259D02*
X161519213Y-119128977D01*
X162226320Y-118421870D01*
X161889603Y-118085152D01*
X161687572Y-117883122D02*
X161283511Y-117479061D01*
X160778435Y-118388198D02*
X161485542Y-117681091D01*
X147742816Y-108462579D02*
X148449923Y-107755473D01*
X148113205Y-108092190D02*
X147709144Y-107688129D01*
X147338755Y-108058518D02*
X148045862Y-107351412D01*
X147237740Y-107553442D02*
X146901022Y-107216725D01*
X147103053Y-107822816D02*
X147574457Y-106880007D01*
X146631648Y-107351412D01*
X146059229Y-106778992D02*
X146395946Y-107115709D01*
X147103053Y-106408603D01*
X146631648Y-105937198D02*
X146227587Y-105533137D01*
X145722511Y-106442274D02*
X146429618Y-105735168D01*
X147578740Y-119161633D02*
X147679755Y-119195305D01*
X147780770Y-119296320D01*
X147848114Y-119431007D01*
X147848114Y-119565694D01*
X147814442Y-119666709D01*
X147713427Y-119835068D01*
X147612412Y-119936083D01*
X147444053Y-120037099D01*
X147343038Y-120070770D01*
X147208351Y-120070770D01*
X147073664Y-120003427D01*
X147006320Y-119936083D01*
X146938977Y-119801396D01*
X146938977Y-119734053D01*
X147174679Y-119498351D01*
X147309366Y-119633038D01*
X146568587Y-119498351D02*
X147275694Y-118791244D01*
X146164526Y-119094290D01*
X146871633Y-118387183D01*
X145827809Y-118757572D02*
X146534916Y-118050465D01*
X146366557Y-117882107D01*
X146231870Y-117814763D01*
X146097183Y-117814763D01*
X145996168Y-117848435D01*
X145827809Y-117949450D01*
X145726794Y-118050465D01*
X145625778Y-118218824D01*
X145592107Y-118319839D01*
X145592107Y-118454526D01*
X145659450Y-118589213D01*
X145827809Y-118757572D01*
X170602816Y-108492579D02*
X171309923Y-107785473D01*
X170569144Y-108054847D01*
X170838518Y-107314068D01*
X170131412Y-108021175D01*
X169424305Y-107314068D02*
X169828366Y-107718129D01*
X169626335Y-107516099D02*
X170333442Y-106808992D01*
X170299770Y-106977351D01*
X170299770Y-107112038D01*
X170333442Y-107213053D01*
X156748587Y-118024137D02*
X156176168Y-118596557D01*
X156075152Y-118630229D01*
X156007809Y-118630229D01*
X155906794Y-118596557D01*
X155772107Y-118461870D01*
X155738435Y-118360855D01*
X155738435Y-118293511D01*
X155772107Y-118192496D01*
X156344526Y-117620076D01*
X129962816Y-108472579D02*
X130669923Y-107765473D01*
X130501564Y-107597114D01*
X130366877Y-107529770D01*
X130232190Y-107529770D01*
X130131175Y-107563442D01*
X129962816Y-107664457D01*
X129861801Y-107765473D01*
X129760786Y-107933831D01*
X129727114Y-108034847D01*
X129727114Y-108169534D01*
X129794457Y-108304221D01*
X129962816Y-108472579D01*
X129929144Y-107159381D02*
X129929144Y-107092038D01*
X129895473Y-106991022D01*
X129727114Y-106822664D01*
X129626099Y-106788992D01*
X129558755Y-106788992D01*
X129457740Y-106822664D01*
X129390396Y-106890007D01*
X129323053Y-107024694D01*
X129323053Y-107832816D01*
X128885320Y-107395083D01*
X165732190Y-108203205D02*
X165193442Y-107664457D01*
X165193442Y-108203205D02*
X165732190Y-107664457D01*
X164216961Y-107226725D02*
X164621022Y-107630786D01*
X164418992Y-107428755D02*
X165126099Y-106721648D01*
X165092427Y-106890007D01*
X165092427Y-107024694D01*
X165126099Y-107125709D01*
X164587351Y-106317587D02*
X164587351Y-106250244D01*
X164553679Y-106149229D01*
X164385320Y-105980870D01*
X164284305Y-105947198D01*
X164216961Y-105947198D01*
X164115946Y-105980870D01*
X164048603Y-106048213D01*
X163981259Y-106182900D01*
X163981259Y-106991022D01*
X163543526Y-106553290D01*
X164048603Y-105644152D02*
X163105794Y-106115557D01*
X163577198Y-105172748D01*
X133935931Y-119101633D02*
X133599213Y-118764916D01*
X133801244Y-119371007D02*
X134272648Y-118428198D01*
X133329839Y-118899603D01*
X133666557Y-117822107D02*
X133599213Y-117754763D01*
X133498198Y-117721091D01*
X133430855Y-117721091D01*
X133329839Y-117754763D01*
X133161481Y-117855778D01*
X132993122Y-118024137D01*
X132892107Y-118192496D01*
X132858435Y-118293511D01*
X132858435Y-118360855D01*
X132892107Y-118461870D01*
X132959450Y-118529213D01*
X133060465Y-118562885D01*
X133127809Y-118562885D01*
X133228824Y-118529213D01*
X133397183Y-118428198D01*
X133565542Y-118259839D01*
X133666557Y-118091481D01*
X133700229Y-117990465D01*
X133700229Y-117923122D01*
X133666557Y-117822107D01*
X119625068Y-119926083D02*
X119086320Y-119387335D01*
X119086320Y-119926083D02*
X119625068Y-119387335D01*
X118850618Y-118276168D02*
X119187335Y-118612885D01*
X118884290Y-118983274D01*
X118884290Y-118915931D01*
X118850618Y-118814916D01*
X118682259Y-118646557D01*
X118581244Y-118612885D01*
X118513900Y-118612885D01*
X118412885Y-118646557D01*
X118244526Y-118814916D01*
X118210855Y-118915931D01*
X118210855Y-118983274D01*
X118244526Y-119084290D01*
X118412885Y-119252648D01*
X118513900Y-119286320D01*
X118581244Y-119286320D01*
X118614916Y-118040465D02*
X117672107Y-118511870D01*
X118143511Y-117569061D01*
X166885931Y-119041633D02*
X166549213Y-118704916D01*
X166751244Y-119311007D02*
X167222648Y-118368198D01*
X166279839Y-118839603D01*
X166448198Y-117593748D02*
X166582885Y-117728435D01*
X166616557Y-117829450D01*
X166616557Y-117896794D01*
X166582885Y-118065152D01*
X166481870Y-118233511D01*
X166212496Y-118502885D01*
X166111481Y-118536557D01*
X166044137Y-118536557D01*
X165943122Y-118502885D01*
X165808435Y-118368198D01*
X165774763Y-118267183D01*
X165774763Y-118199839D01*
X165808435Y-118098824D01*
X165976794Y-117930465D01*
X166077809Y-117896794D01*
X166145152Y-117896794D01*
X166246168Y-117930465D01*
X166380855Y-118065152D01*
X166414526Y-118166168D01*
X166414526Y-118233511D01*
X166380855Y-118334526D01*
X175828518Y-108274221D02*
X175491801Y-107937503D01*
X175693831Y-108543595D02*
X176165236Y-107600786D01*
X175222427Y-108072190D01*
X175289770Y-107331412D02*
X175390786Y-107365083D01*
X175458129Y-107365083D01*
X175559144Y-107331412D01*
X175592816Y-107297740D01*
X175626488Y-107196725D01*
X175626488Y-107129381D01*
X175592816Y-107028366D01*
X175458129Y-106893679D01*
X175357114Y-106860007D01*
X175289770Y-106860007D01*
X175188755Y-106893679D01*
X175155083Y-106927351D01*
X175121412Y-107028366D01*
X175121412Y-107095709D01*
X175155083Y-107196725D01*
X175289770Y-107331412D01*
X175323442Y-107432427D01*
X175323442Y-107499770D01*
X175289770Y-107600786D01*
X175155083Y-107735473D01*
X175054068Y-107769144D01*
X174986725Y-107769144D01*
X174885709Y-107735473D01*
X174751022Y-107600786D01*
X174717351Y-107499770D01*
X174717351Y-107432427D01*
X174751022Y-107331412D01*
X174885709Y-107196725D01*
X174986725Y-107163053D01*
X175054068Y-107163053D01*
X175155083Y-107196725D01*
X119812816Y-108482579D02*
X120519923Y-107775473D01*
X119408755Y-108078518D01*
X120115862Y-107371412D01*
X118735320Y-107270396D02*
X118735320Y-107337740D01*
X118802664Y-107472427D01*
X118870007Y-107539770D01*
X119004694Y-107607114D01*
X119139381Y-107607114D01*
X119240396Y-107573442D01*
X119408755Y-107472427D01*
X119509770Y-107371412D01*
X119610786Y-107203053D01*
X119644457Y-107102038D01*
X119644457Y-106967351D01*
X119577114Y-106832664D01*
X119509770Y-106765320D01*
X119375083Y-106697977D01*
X119307740Y-106697977D01*
X178418518Y-108334221D02*
X178081801Y-107997503D01*
X178283831Y-108603595D02*
X178755236Y-107660786D01*
X177812427Y-108132190D01*
X177206335Y-107526099D02*
X177610396Y-107930160D01*
X177408366Y-107728129D02*
X178115473Y-107021022D01*
X178081801Y-107189381D01*
X178081801Y-107324068D01*
X178115473Y-107425083D01*
X177475709Y-106381259D02*
X177408366Y-106313916D01*
X177307351Y-106280244D01*
X177240007Y-106280244D01*
X177138992Y-106313916D01*
X176970633Y-106414931D01*
X176802274Y-106583290D01*
X176701259Y-106751648D01*
X176667587Y-106852664D01*
X176667587Y-106920007D01*
X176701259Y-107021022D01*
X176768603Y-107088366D01*
X176869618Y-107122038D01*
X176936961Y-107122038D01*
X177037977Y-107088366D01*
X177206335Y-106987351D01*
X177374694Y-106818992D01*
X177475709Y-106650633D01*
X177509381Y-106549618D01*
X177509381Y-106482274D01*
X177475709Y-106381259D01*
X140162816Y-108482579D02*
X140869923Y-107775473D01*
X140701564Y-107607114D01*
X140566877Y-107539770D01*
X140432190Y-107539770D01*
X140331175Y-107573442D01*
X140162816Y-107674457D01*
X140061801Y-107775473D01*
X139960786Y-107943831D01*
X139927114Y-108044847D01*
X139927114Y-108179534D01*
X139994457Y-108314221D01*
X140162816Y-108482579D01*
X139624068Y-107001022D02*
X139152664Y-107472427D01*
X140061801Y-106900007D02*
X139725083Y-107573442D01*
X139287351Y-107135709D01*
X154144916Y-117990465D02*
X153202107Y-118461870D01*
X153673511Y-117519061D01*
X163717266Y-107842816D02*
X162841801Y-108381564D01*
X163212190Y-107741801D01*
X162572427Y-108112190D01*
X163111175Y-107236725D01*
X162370396Y-107506099D02*
X162033679Y-107169381D01*
X162235709Y-107775473D02*
X162707114Y-106832664D01*
X161764305Y-107304068D01*
X161528603Y-107068366D02*
X162235709Y-106361259D01*
X162000007Y-106125557D02*
X161595946Y-105721496D01*
X161090870Y-106630633D02*
X161797977Y-105923526D01*
X129798740Y-119141633D02*
X129899755Y-119175305D01*
X130000770Y-119276320D01*
X130068114Y-119411007D01*
X130068114Y-119545694D01*
X130034442Y-119646709D01*
X129933427Y-119815068D01*
X129832412Y-119916083D01*
X129664053Y-120017099D01*
X129563038Y-120050770D01*
X129428351Y-120050770D01*
X129293664Y-119983427D01*
X129226320Y-119916083D01*
X129158977Y-119781396D01*
X129158977Y-119714053D01*
X129394679Y-119478351D01*
X129529366Y-119613038D01*
X128788587Y-119478351D02*
X129495694Y-118771244D01*
X128384526Y-119074290D01*
X129091633Y-118367183D01*
X128047809Y-118737572D02*
X128754916Y-118030465D01*
X128586557Y-117862107D01*
X128451870Y-117794763D01*
X128317183Y-117794763D01*
X128216168Y-117828435D01*
X128047809Y-117929450D01*
X127946794Y-118030465D01*
X127845778Y-118198824D01*
X127812107Y-118299839D01*
X127812107Y-118434526D01*
X127879450Y-118569213D01*
X128047809Y-118737572D01*
X122165068Y-119886083D02*
X121626320Y-119347335D01*
X121626320Y-119886083D02*
X122165068Y-119347335D01*
X120986557Y-119246320D02*
X120851870Y-119111633D01*
X120818198Y-119010618D01*
X120818198Y-118943274D01*
X120851870Y-118774916D01*
X120952885Y-118606557D01*
X121222259Y-118337183D01*
X121323274Y-118303511D01*
X121390618Y-118303511D01*
X121491633Y-118337183D01*
X121626320Y-118471870D01*
X121659992Y-118572885D01*
X121659992Y-118640229D01*
X121626320Y-118741244D01*
X121457961Y-118909603D01*
X121356946Y-118943274D01*
X121289603Y-118943274D01*
X121188587Y-118909603D01*
X121053900Y-118774916D01*
X121020229Y-118673900D01*
X121020229Y-118606557D01*
X121053900Y-118505542D01*
X121154916Y-118000465D02*
X120212107Y-118471870D01*
X120683511Y-117529061D01*
X154908755Y-108068518D02*
X155481175Y-107967503D01*
X155312816Y-108472579D02*
X156019923Y-107765473D01*
X155750549Y-107496099D01*
X155649534Y-107462427D01*
X155582190Y-107462427D01*
X155481175Y-107496099D01*
X155380160Y-107597114D01*
X155346488Y-107698129D01*
X155346488Y-107765473D01*
X155380160Y-107866488D01*
X155649534Y-108135862D01*
X154605709Y-107765473D02*
X155312816Y-107058366D01*
X155144457Y-106890007D01*
X155009770Y-106822664D01*
X154875083Y-106822664D01*
X154774068Y-106856335D01*
X154605709Y-106957351D01*
X154504694Y-107058366D01*
X154403679Y-107226725D01*
X154370007Y-107327740D01*
X154370007Y-107462427D01*
X154437351Y-107597114D01*
X154605709Y-107765473D01*
X150212816Y-108472579D02*
X150919923Y-107765473D01*
X150179144Y-108034847D01*
X150448518Y-107294068D01*
X149741412Y-108001175D01*
X149000633Y-107260396D02*
X149573053Y-107159381D01*
X149404694Y-107664457D02*
X150111801Y-106957351D01*
X149842427Y-106687977D01*
X149741412Y-106654305D01*
X149674068Y-106654305D01*
X149573053Y-106687977D01*
X149472038Y-106788992D01*
X149438366Y-106890007D01*
X149438366Y-106957351D01*
X149472038Y-107058366D01*
X149741412Y-107327740D01*
X149067977Y-106586961D02*
X148832274Y-106351259D01*
X148360870Y-106620633D02*
X148697587Y-106957351D01*
X149404694Y-106250244D01*
X149067977Y-105913526D01*
X147519076Y-105913526D02*
X147620091Y-105947198D01*
X147754778Y-105947198D01*
X147956809Y-105947198D01*
X148057824Y-105980870D01*
X148125168Y-106048213D01*
X147923137Y-106182900D02*
X148024152Y-106216572D01*
X148158839Y-106216572D01*
X148327198Y-106115557D01*
X148562900Y-105879855D01*
X148663916Y-105711496D01*
X148663916Y-105576809D01*
X148630244Y-105475794D01*
X148495557Y-105341107D01*
X148394542Y-105307435D01*
X148259855Y-105307435D01*
X148091496Y-105408450D01*
X147855794Y-105644152D01*
X147754778Y-105812511D01*
X147754778Y-105947198D01*
X147788450Y-106048213D01*
X147923137Y-106182900D01*
X145232816Y-108482579D02*
X145939923Y-107775473D01*
X144828755Y-108078518D01*
X145535862Y-107371412D01*
X144492038Y-107741801D02*
X145199144Y-107034694D01*
X144458366Y-107304068D01*
X144727740Y-106563290D01*
X144020633Y-107270396D01*
X143683916Y-106933679D02*
X144391022Y-106226572D01*
X117252816Y-108482579D02*
X117959923Y-107775473D01*
X117791564Y-107607114D01*
X117656877Y-107539770D01*
X117522190Y-107539770D01*
X117421175Y-107573442D01*
X117252816Y-107674457D01*
X117151801Y-107775473D01*
X117050786Y-107943831D01*
X117017114Y-108044847D01*
X117017114Y-108179534D01*
X117084457Y-108314221D01*
X117252816Y-108482579D01*
X117320160Y-107135709D02*
X116848755Y-106664305D01*
X116444694Y-107674457D01*
X172738755Y-108068518D02*
X173311175Y-107967503D01*
X173142816Y-108472579D02*
X173849923Y-107765473D01*
X173580549Y-107496099D01*
X173479534Y-107462427D01*
X173412190Y-107462427D01*
X173311175Y-107496099D01*
X173210160Y-107597114D01*
X173176488Y-107698129D01*
X173176488Y-107765473D01*
X173210160Y-107866488D01*
X173479534Y-108135862D01*
X172570396Y-107159381D02*
X172806099Y-107395083D01*
X172435709Y-107765473D02*
X173142816Y-107058366D01*
X172806099Y-106721648D01*
X171896961Y-107159381D02*
X171762274Y-107092038D01*
X171593916Y-106923679D01*
X171560244Y-106822664D01*
X171560244Y-106755320D01*
X171593916Y-106654305D01*
X171661259Y-106586961D01*
X171762274Y-106553290D01*
X171829618Y-106553290D01*
X171930633Y-106586961D01*
X172098992Y-106687977D01*
X172200007Y-106721648D01*
X172267351Y-106721648D01*
X172368366Y-106687977D01*
X172435709Y-106620633D01*
X172469381Y-106519618D01*
X172469381Y-106452274D01*
X172435709Y-106351259D01*
X172267351Y-106182900D01*
X172132664Y-106115557D01*
X171156183Y-106485946D02*
X171863290Y-105778839D01*
X171526572Y-106115557D02*
X171122511Y-105711496D01*
X170752122Y-106081885D02*
X171459229Y-105374778D01*
X164335931Y-119061633D02*
X163999213Y-118724916D01*
X164201244Y-119331007D02*
X164672648Y-118388198D01*
X163729839Y-118859603D01*
X164268587Y-117984137D02*
X163797183Y-117512733D01*
X163393122Y-118522885D01*
X179615931Y-118981633D02*
X179279213Y-118644916D01*
X179481244Y-119251007D02*
X179952648Y-118308198D01*
X179009839Y-118779603D01*
X178740465Y-118510229D02*
X178605778Y-118375542D01*
X178572107Y-118274526D01*
X178572107Y-118207183D01*
X178605778Y-118038824D01*
X178706794Y-117870465D01*
X178976168Y-117601091D01*
X179077183Y-117567420D01*
X179144526Y-117567420D01*
X179245542Y-117601091D01*
X179380229Y-117735778D01*
X179413900Y-117836794D01*
X179413900Y-117904137D01*
X179380229Y-118005152D01*
X179211870Y-118173511D01*
X179110855Y-118207183D01*
X179043511Y-118207183D01*
X178942496Y-118173511D01*
X178807809Y-118038824D01*
X178774137Y-117937809D01*
X178774137Y-117870465D01*
X178807809Y-117769450D01*
X112348518Y-108284221D02*
X112011801Y-107947503D01*
X112213831Y-108553595D02*
X112685236Y-107610786D01*
X111742427Y-108082190D01*
X111136335Y-107476099D02*
X111540396Y-107880160D01*
X111338366Y-107678129D02*
X112045473Y-106971022D01*
X112011801Y-107139381D01*
X112011801Y-107274068D01*
X112045473Y-107375083D01*
X111203679Y-106129229D02*
X111540396Y-106465946D01*
X111237351Y-106836335D01*
X111237351Y-106768992D01*
X111203679Y-106667977D01*
X111035320Y-106499618D01*
X110934305Y-106465946D01*
X110866961Y-106465946D01*
X110765946Y-106499618D01*
X110597587Y-106667977D01*
X110563916Y-106768992D01*
X110563916Y-106836335D01*
X110597587Y-106937351D01*
X110765946Y-107105709D01*
X110866961Y-107139381D01*
X110934305Y-107139381D01*
X161544595Y-120913579D02*
X161409908Y-120846236D01*
X161342564Y-120846236D01*
X161241549Y-120879908D01*
X161140534Y-120980923D01*
X161106862Y-121081938D01*
X161106862Y-121149282D01*
X161140534Y-121250297D01*
X161409908Y-121519671D01*
X162117014Y-120812564D01*
X161881312Y-120576862D01*
X161780297Y-120543190D01*
X161712953Y-120543190D01*
X161611938Y-120576862D01*
X161544595Y-120644205D01*
X161510923Y-120745221D01*
X161510923Y-120812564D01*
X161544595Y-120913579D01*
X161780297Y-121149282D01*
X161409908Y-120105457D02*
X160837488Y-120677877D01*
X160736473Y-120711549D01*
X160669129Y-120711549D01*
X160568114Y-120677877D01*
X160433427Y-120543190D01*
X160399755Y-120442175D01*
X160399755Y-120374831D01*
X160433427Y-120273816D01*
X161005847Y-119701396D01*
X160029366Y-120071786D02*
X159894679Y-120004442D01*
X159726320Y-119836083D01*
X159692648Y-119735068D01*
X159692648Y-119667725D01*
X159726320Y-119566709D01*
X159793664Y-119499366D01*
X159894679Y-119465694D01*
X159962022Y-119465694D01*
X160063038Y-119499366D01*
X160231396Y-119600381D01*
X160332412Y-119634053D01*
X160399755Y-119634053D01*
X160500770Y-119600381D01*
X160568114Y-119533038D01*
X160601786Y-119432022D01*
X160601786Y-119364679D01*
X160568114Y-119263664D01*
X160399755Y-119095305D01*
X160265068Y-119027961D01*
X158884526Y-118994290D02*
X159456946Y-118893274D01*
X159288587Y-119398351D02*
X159995694Y-118691244D01*
X159726320Y-118421870D01*
X159625305Y-118388198D01*
X159557961Y-118388198D01*
X159456946Y-118421870D01*
X159355931Y-118522885D01*
X159322259Y-118623900D01*
X159322259Y-118691244D01*
X159355931Y-118792259D01*
X159625305Y-119061633D01*
X158042733Y-118287183D02*
X158143748Y-118320855D01*
X158278435Y-118320855D01*
X158480465Y-118320855D01*
X158581481Y-118354526D01*
X158648824Y-118421870D01*
X158446794Y-118556557D02*
X158547809Y-118590229D01*
X158682496Y-118590229D01*
X158850855Y-118489213D01*
X159086557Y-118253511D01*
X159187572Y-118085152D01*
X159187572Y-117950465D01*
X159153900Y-117849450D01*
X159019213Y-117714763D01*
X158918198Y-117681091D01*
X158783511Y-117681091D01*
X158615152Y-117782107D01*
X158379450Y-118017809D01*
X158278435Y-118186168D01*
X158278435Y-118320855D01*
X158312107Y-118421870D01*
X158446794Y-118556557D01*
X160732190Y-108253205D02*
X160193442Y-107714457D01*
X159957740Y-106603290D02*
X160294457Y-106940007D01*
X159991412Y-107310396D01*
X159991412Y-107243053D01*
X159957740Y-107142038D01*
X159789381Y-106973679D01*
X159688366Y-106940007D01*
X159621022Y-106940007D01*
X159520007Y-106973679D01*
X159351648Y-107142038D01*
X159317977Y-107243053D01*
X159317977Y-107310396D01*
X159351648Y-107411412D01*
X159520007Y-107579770D01*
X159621022Y-107613442D01*
X159688366Y-107613442D01*
X159722038Y-106367587D02*
X158779229Y-106838992D01*
X159250633Y-105896183D01*
X114309366Y-119805068D02*
X113972648Y-119468351D01*
X114174679Y-120074442D02*
X114646083Y-119131633D01*
X113703274Y-119603038D01*
X113097183Y-118996946D02*
X113501244Y-119401007D01*
X113299213Y-119198977D02*
X114006320Y-118491870D01*
X113972648Y-118660229D01*
X113972648Y-118794916D01*
X114006320Y-118895931D01*
X112962496Y-117919450D02*
X112491091Y-118390855D01*
X113400229Y-117818435D02*
X113063511Y-118491870D01*
X112625778Y-118054137D01*
X135022816Y-108502579D02*
X135729923Y-107795473D01*
X135561564Y-107627114D01*
X135426877Y-107559770D01*
X135292190Y-107559770D01*
X135191175Y-107593442D01*
X135022816Y-107694457D01*
X134921801Y-107795473D01*
X134820786Y-107963831D01*
X134787114Y-108064847D01*
X134787114Y-108199534D01*
X134854457Y-108334221D01*
X135022816Y-108502579D01*
X134686099Y-106751648D02*
X135022816Y-107088366D01*
X134719770Y-107458755D01*
X134719770Y-107391412D01*
X134686099Y-107290396D01*
X134517740Y-107122038D01*
X134416725Y-107088366D01*
X134349381Y-107088366D01*
X134248366Y-107122038D01*
X134080007Y-107290396D01*
X134046335Y-107391412D01*
X134046335Y-107458755D01*
X134080007Y-107559770D01*
X134248366Y-107728129D01*
X134349381Y-107761801D01*
X134416725Y-107761801D01*
X142662816Y-108472579D02*
X143369923Y-107765473D01*
X142326099Y-108135862D02*
X143033205Y-107428755D01*
X141922038Y-107731801D01*
X142629144Y-107024694D01*
X142393442Y-106788992D02*
X141989381Y-106384931D01*
X141484305Y-107294068D02*
X142191412Y-106586961D01*
X150988824Y-118155152D02*
X150652107Y-118491870D01*
X151594916Y-118020465D02*
X150988824Y-118155152D01*
X151123511Y-117549061D01*
X179837014Y-121485999D02*
X179702327Y-121418656D01*
X179634984Y-121418656D01*
X179533969Y-121452327D01*
X179432953Y-121553343D01*
X179399282Y-121654358D01*
X179399282Y-121721701D01*
X179432953Y-121822717D01*
X179702327Y-122092091D01*
X180409434Y-121384984D01*
X180173732Y-121149282D01*
X180072717Y-121115610D01*
X180005373Y-121115610D01*
X179904358Y-121149282D01*
X179837014Y-121216625D01*
X179803343Y-121317640D01*
X179803343Y-121384984D01*
X179837014Y-121485999D01*
X180072717Y-121721701D01*
X179702327Y-120677877D02*
X179129908Y-121250297D01*
X179028892Y-121283969D01*
X178961549Y-121283969D01*
X178860534Y-121250297D01*
X178725847Y-121115610D01*
X178692175Y-121014595D01*
X178692175Y-120947251D01*
X178725847Y-120846236D01*
X179298266Y-120273816D01*
X178321786Y-120644205D02*
X178187099Y-120576862D01*
X178018740Y-120408503D01*
X177985068Y-120307488D01*
X177985068Y-120240144D01*
X178018740Y-120139129D01*
X178086083Y-120071786D01*
X178187099Y-120038114D01*
X178254442Y-120038114D01*
X178355457Y-120071786D01*
X178523816Y-120172801D01*
X178624831Y-120206473D01*
X178692175Y-120206473D01*
X178793190Y-120172801D01*
X178860534Y-120105457D01*
X178894205Y-120004442D01*
X178894205Y-119937099D01*
X178860534Y-119836083D01*
X178692175Y-119667725D01*
X178557488Y-119600381D01*
X177816709Y-119802412D02*
X177479992Y-119465694D01*
X177682022Y-120071786D02*
X178153427Y-119128977D01*
X177210618Y-119600381D01*
X176638198Y-118893274D02*
X176638198Y-118960618D01*
X176705542Y-119095305D01*
X176772885Y-119162648D01*
X176907572Y-119229992D01*
X177042259Y-119229992D01*
X177143274Y-119196320D01*
X177311633Y-119095305D01*
X177412648Y-118994290D01*
X177513664Y-118825931D01*
X177547335Y-118724916D01*
X177547335Y-118590229D01*
X177479992Y-118455542D01*
X177412648Y-118388198D01*
X177277961Y-118320855D01*
X177210618Y-118320855D01*
X176267809Y-118657572D02*
X176974916Y-117950465D01*
X175863748Y-118253511D02*
X176570855Y-118152496D01*
X176570855Y-117546404D02*
X176570855Y-118354526D01*
X127218740Y-119171633D02*
X127319755Y-119205305D01*
X127420770Y-119306320D01*
X127488114Y-119441007D01*
X127488114Y-119575694D01*
X127454442Y-119676709D01*
X127353427Y-119845068D01*
X127252412Y-119946083D01*
X127084053Y-120047099D01*
X126983038Y-120080770D01*
X126848351Y-120080770D01*
X126713664Y-120013427D01*
X126646320Y-119946083D01*
X126578977Y-119811396D01*
X126578977Y-119744053D01*
X126814679Y-119508351D01*
X126949366Y-119643038D01*
X126208587Y-119508351D02*
X126915694Y-118801244D01*
X125804526Y-119104290D01*
X126511633Y-118397183D01*
X125467809Y-118767572D02*
X126174916Y-118060465D01*
X126006557Y-117892107D01*
X125871870Y-117824763D01*
X125737183Y-117824763D01*
X125636168Y-117858435D01*
X125467809Y-117959450D01*
X125366794Y-118060465D01*
X125265778Y-118228824D01*
X125232107Y-118329839D01*
X125232107Y-118464526D01*
X125299450Y-118599213D01*
X125467809Y-118767572D01*
X141575931Y-119091633D02*
X141239213Y-118754916D01*
X141441244Y-119361007D02*
X141912648Y-118418198D01*
X140969839Y-118889603D01*
X141508587Y-118014137D02*
X141070855Y-117576404D01*
X141037183Y-118081481D01*
X140936168Y-117980465D01*
X140835152Y-117946794D01*
X140767809Y-117946794D01*
X140666794Y-117980465D01*
X140498435Y-118148824D01*
X140464763Y-118249839D01*
X140464763Y-118317183D01*
X140498435Y-118418198D01*
X140700465Y-118620229D01*
X140801481Y-118653900D01*
X140868824Y-118653900D01*
X169485931Y-119001633D02*
X169149213Y-118664916D01*
X169351244Y-119271007D02*
X169822648Y-118328198D01*
X168879839Y-118799603D01*
X169014526Y-117520076D02*
X169351244Y-117856794D01*
X169048198Y-118227183D01*
X169048198Y-118159839D01*
X169014526Y-118058824D01*
X168846168Y-117890465D01*
X168745152Y-117856794D01*
X168677809Y-117856794D01*
X168576794Y-117890465D01*
X168408435Y-118058824D01*
X168374763Y-118159839D01*
X168374763Y-118227183D01*
X168408435Y-118328198D01*
X168576794Y-118496557D01*
X168677809Y-118530229D01*
X168745152Y-118530229D01*
X152802816Y-108472579D02*
X153509923Y-107765473D01*
X153038518Y-107294068D02*
X152903831Y-107159381D01*
X152802816Y-107125709D01*
X152668129Y-107125709D01*
X152499770Y-107226725D01*
X152264068Y-107462427D01*
X152163053Y-107630786D01*
X152163053Y-107765473D01*
X152196725Y-107866488D01*
X152331412Y-108001175D01*
X152432427Y-108034847D01*
X152567114Y-108034847D01*
X152735473Y-107933831D01*
X152971175Y-107698129D01*
X153072190Y-107529770D01*
X153072190Y-107395083D01*
X153038518Y-107294068D01*
X151321259Y-106991022D02*
X151893679Y-106890007D01*
X151725320Y-107395083D02*
X152432427Y-106687977D01*
X152163053Y-106418603D01*
X152062038Y-106384931D01*
X151994694Y-106384931D01*
X151893679Y-106418603D01*
X151792664Y-106519618D01*
X151758992Y-106620633D01*
X151758992Y-106687977D01*
X151792664Y-106788992D01*
X152062038Y-107058366D01*
X150479465Y-106283916D02*
X150580481Y-106317587D01*
X150715168Y-106317587D01*
X150917198Y-106317587D01*
X151018213Y-106351259D01*
X151085557Y-106418603D01*
X150883526Y-106553290D02*
X150984542Y-106586961D01*
X151119229Y-106586961D01*
X151287587Y-106485946D01*
X151523290Y-106250244D01*
X151624305Y-106081885D01*
X151624305Y-105947198D01*
X151590633Y-105846183D01*
X151455946Y-105711496D01*
X151354931Y-105677824D01*
X151220244Y-105677824D01*
X151051885Y-105778839D01*
X150816183Y-106014542D01*
X150715168Y-106182900D01*
X150715168Y-106317587D01*
X150748839Y-106418603D01*
X150883526Y-106553290D01*
X171995931Y-119061633D02*
X171659213Y-118724916D01*
X171861244Y-119331007D02*
X172332648Y-118388198D01*
X171389839Y-118859603D01*
X171322496Y-117849450D02*
X170851091Y-118320855D01*
X171760229Y-117748435D02*
X171423511Y-118421870D01*
X170985778Y-117984137D01*
X151509282Y-120414831D02*
X150566473Y-120886236D01*
X151037877Y-119943427D01*
X150095068Y-120414831D02*
X150802175Y-119707725D01*
X149758351Y-120078114D02*
X150465457Y-119371007D01*
X150297099Y-119202648D01*
X150162412Y-119135305D01*
X150027725Y-119135305D01*
X149926709Y-119168977D01*
X149758351Y-119269992D01*
X149657335Y-119371007D01*
X149556320Y-119539366D01*
X149522648Y-119640381D01*
X149522648Y-119775068D01*
X149589992Y-119909755D01*
X149758351Y-120078114D01*
X149421633Y-119000618D02*
X149185931Y-118764916D01*
X148714526Y-119034290D02*
X149051244Y-119371007D01*
X149758351Y-118663900D01*
X149421633Y-118327183D01*
X148983900Y-117889450D02*
X148849213Y-117754763D01*
X148748198Y-117721091D01*
X148613511Y-117721091D01*
X148445152Y-117822107D01*
X148209450Y-118057809D01*
X148108435Y-118226168D01*
X148108435Y-118360855D01*
X148142107Y-118461870D01*
X148276794Y-118596557D01*
X148377809Y-118630229D01*
X148512496Y-118630229D01*
X148680855Y-118529213D01*
X148916557Y-118293511D01*
X149017572Y-118125152D01*
X149017572Y-117990465D01*
X148983900Y-117889450D01*
X131560618Y-119515694D02*
X131560618Y-119583038D01*
X131627961Y-119717725D01*
X131695305Y-119785068D01*
X131829992Y-119852412D01*
X131964679Y-119852412D01*
X132065694Y-119818740D01*
X132234053Y-119717725D01*
X132335068Y-119616709D01*
X132436083Y-119448351D01*
X132469755Y-119347335D01*
X132469755Y-119212648D01*
X132402412Y-119077961D01*
X132335068Y-119010618D01*
X132200381Y-118943274D01*
X132133038Y-118943274D01*
X130853511Y-118943274D02*
X131190229Y-119279992D01*
X131897335Y-118572885D01*
X130617809Y-118707572D02*
X131324916Y-118000465D01*
X130213748Y-118303511D02*
X130920855Y-118202496D01*
X130920855Y-117596404D02*
X130920855Y-118404526D01*
X176243190Y-121182953D02*
X176815610Y-121081938D01*
X176647251Y-121587014D02*
X177354358Y-120879908D01*
X177084984Y-120610534D01*
X176983969Y-120576862D01*
X176916625Y-120576862D01*
X176815610Y-120610534D01*
X176714595Y-120711549D01*
X176680923Y-120812564D01*
X176680923Y-120879908D01*
X176714595Y-120980923D01*
X176983969Y-121250297D01*
X176512564Y-120038114D02*
X176377877Y-119903427D01*
X176276862Y-119869755D01*
X176142175Y-119869755D01*
X175973816Y-119970770D01*
X175738114Y-120206473D01*
X175637099Y-120374831D01*
X175637099Y-120509518D01*
X175670770Y-120610534D01*
X175805457Y-120745221D01*
X175906473Y-120778892D01*
X176041160Y-120778892D01*
X176209518Y-120677877D01*
X176445221Y-120442175D01*
X176546236Y-120273816D01*
X176546236Y-120139129D01*
X176512564Y-120038114D01*
X175199366Y-120139129D02*
X175906473Y-119432022D01*
X175165694Y-119701396D01*
X175435068Y-118960618D01*
X174727961Y-119667725D01*
X174054526Y-118859603D02*
X174054526Y-118926946D01*
X174121870Y-119061633D01*
X174189213Y-119128977D01*
X174323900Y-119196320D01*
X174458587Y-119196320D01*
X174559603Y-119162648D01*
X174727961Y-119061633D01*
X174828977Y-118960618D01*
X174929992Y-118792259D01*
X174963664Y-118691244D01*
X174963664Y-118556557D01*
X174896320Y-118421870D01*
X174828977Y-118354526D01*
X174694290Y-118287183D01*
X174626946Y-118287183D01*
X173751481Y-118623900D02*
X173616794Y-118556557D01*
X173448435Y-118388198D01*
X173414763Y-118287183D01*
X173414763Y-118219839D01*
X173448435Y-118118824D01*
X173515778Y-118051481D01*
X173616794Y-118017809D01*
X173684137Y-118017809D01*
X173785152Y-118051481D01*
X173953511Y-118152496D01*
X174054526Y-118186168D01*
X174121870Y-118186168D01*
X174222885Y-118152496D01*
X174290229Y-118085152D01*
X174323900Y-117984137D01*
X174323900Y-117916794D01*
X174290229Y-117815778D01*
X174121870Y-117647420D01*
X173987183Y-117580076D01*
X182639366Y-119505068D02*
X182302648Y-119168351D01*
X182504679Y-119774442D02*
X182976083Y-118831633D01*
X182033274Y-119303038D01*
X181427183Y-118696946D02*
X181831244Y-119101007D01*
X181629213Y-118898977D02*
X182336320Y-118191870D01*
X182302648Y-118360229D01*
X182302648Y-118494916D01*
X182336320Y-118595931D01*
X180753748Y-118023511D02*
X181157809Y-118427572D01*
X180955778Y-118225542D02*
X181662885Y-117518435D01*
X181629213Y-117686794D01*
X181629213Y-117821481D01*
X181662885Y-117922496D01*
X114928518Y-108284221D02*
X114591801Y-107947503D01*
X114793831Y-108553595D02*
X115265236Y-107610786D01*
X114322427Y-108082190D01*
X113716335Y-107476099D02*
X114120396Y-107880160D01*
X113918366Y-107678129D02*
X114625473Y-106971022D01*
X114591801Y-107139381D01*
X114591801Y-107274068D01*
X114625473Y-107375083D01*
X114187740Y-106533290D02*
X113750007Y-106095557D01*
X113716335Y-106600633D01*
X113615320Y-106499618D01*
X113514305Y-106465946D01*
X113446961Y-106465946D01*
X113345946Y-106499618D01*
X113177587Y-106667977D01*
X113143916Y-106768992D01*
X113143916Y-106836335D01*
X113177587Y-106937351D01*
X113379618Y-107139381D01*
X113480633Y-107173053D01*
X113547977Y-107173053D01*
X116799366Y-119825068D02*
X116462648Y-119488351D01*
X116664679Y-120094442D02*
X117136083Y-119151633D01*
X116193274Y-119623038D01*
X115587183Y-119016946D02*
X115991244Y-119421007D01*
X115789213Y-119218977D02*
X116496320Y-118511870D01*
X116462648Y-118680229D01*
X116462648Y-118814916D01*
X116496320Y-118915931D01*
X115957572Y-118107809D02*
X115957572Y-118040465D01*
X115923900Y-117939450D01*
X115755542Y-117771091D01*
X115654526Y-117737420D01*
X115587183Y-117737420D01*
X115486168Y-117771091D01*
X115418824Y-117838435D01*
X115351481Y-117973122D01*
X115351481Y-118781244D01*
X114913748Y-118343511D01*
X168322190Y-108173205D02*
X167783442Y-107634457D01*
X167783442Y-108173205D02*
X168322190Y-107634457D01*
X166806961Y-107196725D02*
X167211022Y-107600786D01*
X167008992Y-107398755D02*
X167716099Y-106691648D01*
X167682427Y-106860007D01*
X167682427Y-106994694D01*
X167716099Y-107095709D01*
X167177351Y-106287587D02*
X167177351Y-106220244D01*
X167143679Y-106119229D01*
X166975320Y-105950870D01*
X166874305Y-105917198D01*
X166806961Y-105917198D01*
X166705946Y-105950870D01*
X166638603Y-106018213D01*
X166571259Y-106152900D01*
X166571259Y-106961022D01*
X166133526Y-106523290D01*
X166638603Y-105614152D02*
X165695794Y-106085557D01*
X166167198Y-105142748D01*
X165460091Y-105445794D02*
X165123374Y-105109076D01*
X165325404Y-105715168D02*
X165796809Y-104772359D01*
X164854000Y-105243763D01*
X164281580Y-104536656D02*
X164281580Y-104604000D01*
X164348924Y-104738687D01*
X164416267Y-104806030D01*
X164550954Y-104873374D01*
X164685641Y-104873374D01*
X164786656Y-104839702D01*
X164955015Y-104738687D01*
X165056030Y-104637672D01*
X165157046Y-104469313D01*
X165190717Y-104368298D01*
X165190717Y-104233611D01*
X165123374Y-104098924D01*
X165056030Y-104031580D01*
X164921343Y-103964237D01*
X164854000Y-103964237D01*
X132502816Y-108492579D02*
X133209923Y-107785473D01*
X133041564Y-107617114D01*
X132906877Y-107549770D01*
X132772190Y-107549770D01*
X132671175Y-107583442D01*
X132502816Y-107684457D01*
X132401801Y-107785473D01*
X132300786Y-107953831D01*
X132267114Y-108054847D01*
X132267114Y-108189534D01*
X132334457Y-108324221D01*
X132502816Y-108492579D01*
X132199770Y-106775320D02*
X132334457Y-106910007D01*
X132368129Y-107011022D01*
X132368129Y-107078366D01*
X132334457Y-107246725D01*
X132233442Y-107415083D01*
X131964068Y-107684457D01*
X131863053Y-107718129D01*
X131795709Y-107718129D01*
X131694694Y-107684457D01*
X131560007Y-107549770D01*
X131526335Y-107448755D01*
X131526335Y-107381412D01*
X131560007Y-107280396D01*
X131728366Y-107112038D01*
X131829381Y-107078366D01*
X131896725Y-107078366D01*
X131997740Y-107112038D01*
X132132427Y-107246725D01*
X132166099Y-107347740D01*
X132166099Y-107415083D01*
X132132427Y-107516099D01*
X180782816Y-108462579D02*
X181489923Y-107755473D01*
X180378755Y-108058518D01*
X181085862Y-107351412D01*
X179705320Y-107250396D02*
X179705320Y-107317740D01*
X179772664Y-107452427D01*
X179840007Y-107519770D01*
X179974694Y-107587114D01*
X180109381Y-107587114D01*
X180210396Y-107553442D01*
X180378755Y-107452427D01*
X180479770Y-107351412D01*
X180580786Y-107183053D01*
X180614457Y-107082038D01*
X180614457Y-106947351D01*
X180547114Y-106812664D01*
X180479770Y-106745320D01*
X180345083Y-106677977D01*
X180277740Y-106677977D01*
D11*
X111660000Y-111910000D02*
X111660000Y-109250000D01*
X181570000Y-111910000D02*
X182900000Y-111910000D01*
X182900000Y-111910000D02*
X182900000Y-110580000D01*
X180300000Y-111910000D02*
X111660000Y-111910000D01*
X180300000Y-109250000D02*
X111660000Y-109250000D01*
X180300000Y-111910000D02*
X180300000Y-109250000D01*
X113075000Y-114240000D02*
X111745000Y-114240000D01*
X114345000Y-114240000D02*
X114345000Y-116900000D01*
X182985000Y-114240000D02*
X182985000Y-116900000D01*
X114345000Y-116900000D02*
X182985000Y-116900000D01*
X111745000Y-114240000D02*
X111745000Y-115570000D01*
X114345000Y-114240000D02*
X182985000Y-114240000D01*
%LPC*%
D12*
X123160000Y-128170000D03*
X123190000Y-123190000D03*
X113030000Y-123190000D03*
X115570000Y-123190000D03*
X118110000Y-123190000D03*
X120650000Y-123190000D03*
X125730000Y-123190000D03*
X128270000Y-123190000D03*
X130810000Y-123190000D03*
X133350000Y-123190000D03*
X135890000Y-123190000D03*
X138430000Y-123190000D03*
X140970000Y-123190000D03*
X143510000Y-123190000D03*
X146050000Y-123190000D03*
X148590000Y-123190000D03*
X151130000Y-123190000D03*
X153670000Y-123190000D03*
X156210000Y-123190000D03*
X158750000Y-123190000D03*
X161290000Y-123190000D03*
X163830000Y-123190000D03*
X166370000Y-123190000D03*
X168910000Y-123190000D03*
X171450000Y-123190000D03*
X173990000Y-123190000D03*
X176530000Y-123190000D03*
X179070000Y-123190000D03*
X181610000Y-123190000D03*
X113000000Y-128170000D03*
X115540000Y-128170000D03*
X118080000Y-128170000D03*
X120620000Y-128170000D03*
X125700000Y-128170000D03*
X128240000Y-128170000D03*
X130780000Y-128170000D03*
X133320000Y-128170000D03*
X135860000Y-128170000D03*
X138400000Y-128170000D03*
X140940000Y-128170000D03*
X143480000Y-128170000D03*
X146020000Y-128170000D03*
X148560000Y-128170000D03*
X151100000Y-128170000D03*
X153640000Y-128170000D03*
X156180000Y-128170000D03*
X158720000Y-128170000D03*
X161260000Y-128170000D03*
X163800000Y-128170000D03*
X166340000Y-128170000D03*
X168880000Y-128170000D03*
X171420000Y-128170000D03*
X173960000Y-128170000D03*
X176500000Y-128170000D03*
X179040000Y-128170000D03*
X181580000Y-128170000D03*
D13*
X181570000Y-110580000D03*
D14*
X179030000Y-110580000D03*
X176490000Y-110580000D03*
X173950000Y-110580000D03*
X171410000Y-110580000D03*
X168870000Y-110580000D03*
X166330000Y-110580000D03*
X163790000Y-110580000D03*
X161250000Y-110580000D03*
X158710000Y-110580000D03*
X156170000Y-110580000D03*
X153630000Y-110580000D03*
X151090000Y-110580000D03*
X148550000Y-110580000D03*
X146010000Y-110580000D03*
X143470000Y-110580000D03*
X140930000Y-110580000D03*
X138390000Y-110580000D03*
X135850000Y-110580000D03*
X133310000Y-110580000D03*
X130770000Y-110580000D03*
X128230000Y-110580000D03*
X125690000Y-110580000D03*
X123150000Y-110580000D03*
X120610000Y-110580000D03*
X118070000Y-110580000D03*
X115530000Y-110580000D03*
X112990000Y-110580000D03*
D13*
X113075000Y-115570000D03*
D14*
X115615000Y-115570000D03*
X118155000Y-115570000D03*
X120695000Y-115570000D03*
X123235000Y-115570000D03*
X125775000Y-115570000D03*
X128315000Y-115570000D03*
X130855000Y-115570000D03*
X133395000Y-115570000D03*
X135935000Y-115570000D03*
X138475000Y-115570000D03*
X141015000Y-115570000D03*
X143555000Y-115570000D03*
X146095000Y-115570000D03*
X148635000Y-115570000D03*
X151175000Y-115570000D03*
X153715000Y-115570000D03*
X156255000Y-115570000D03*
X158795000Y-115570000D03*
X161335000Y-115570000D03*
X163875000Y-115570000D03*
X166415000Y-115570000D03*
X168955000Y-115570000D03*
X171495000Y-115570000D03*
X174035000Y-115570000D03*
X176575000Y-115570000D03*
X179115000Y-115570000D03*
X181655000Y-115570000D03*
M02*
