M48
; DRILL file {KiCad 6.0.11-2627ca5db0~126~ubuntu22.04.1} date Tue 18 Apr 2023 11:26:33 BST
; FORMAT={-:-/ absolute / metric / decimal}
; #@! TF.CreationDate,2023-04-18T11:26:33+01:00
; #@! TF.GenerationSoftware,Kicad,Pcbnew,6.0.11-2627ca5db0~126~ubuntu22.04.1
; #@! TF.FileFunction,Plated,1,2,PTH
FMAT,2
METRIC
; #@! TA.AperFunction,Plated,PTH,ComponentDrill
T1C0.762
; #@! TA.AperFunction,Plated,PTH,ComponentDrill
T2C1.000
%
G90
G05
T1
X113.0Y-128.17
X113.03Y-123.19
X115.54Y-128.17
X115.57Y-123.19
X118.08Y-128.17
X118.11Y-123.19
X120.62Y-128.17
X120.65Y-123.19
X123.16Y-128.17
X123.19Y-123.19
X125.7Y-128.17
X125.73Y-123.19
X128.24Y-128.17
X128.27Y-123.19
X130.78Y-128.17
X130.81Y-123.19
X133.32Y-128.17
X133.35Y-123.19
X135.86Y-128.17
X135.89Y-123.19
X138.4Y-128.17
X138.43Y-123.19
X140.94Y-128.17
X140.97Y-123.19
X143.48Y-128.17
X143.51Y-123.19
X146.02Y-128.17
X146.05Y-123.19
X148.56Y-128.17
X148.59Y-123.19
X151.1Y-128.17
X151.13Y-123.19
X153.64Y-128.17
X153.67Y-123.19
X156.18Y-128.17
X156.21Y-123.19
X158.72Y-128.17
X158.75Y-123.19
X161.26Y-128.17
X161.29Y-123.19
X163.8Y-128.17
X163.83Y-123.19
X166.34Y-128.17
X166.37Y-123.19
X168.88Y-128.17
X168.91Y-123.19
X171.42Y-128.17
X171.45Y-123.19
X173.96Y-128.17
X173.99Y-123.19
X176.5Y-128.17
X176.53Y-123.19
X179.04Y-128.17
X179.07Y-123.19
X181.58Y-128.17
X181.61Y-123.19
T2
X112.99Y-110.58
X113.075Y-115.57
X115.53Y-110.58
X115.615Y-115.57
X118.07Y-110.58
X118.155Y-115.57
X120.61Y-110.58
X120.695Y-115.57
X123.15Y-110.58
X123.235Y-115.57
X125.69Y-110.58
X125.775Y-115.57
X128.23Y-110.58
X128.315Y-115.57
X130.77Y-110.58
X130.855Y-115.57
X133.31Y-110.58
X133.395Y-115.57
X135.85Y-110.58
X135.935Y-115.57
X138.39Y-110.58
X138.475Y-115.57
X140.93Y-110.58
X141.015Y-115.57
X143.47Y-110.58
X143.555Y-115.57
X146.01Y-110.58
X146.095Y-115.57
X148.55Y-110.58
X148.635Y-115.57
X151.09Y-110.58
X151.175Y-115.57
X153.63Y-110.58
X153.715Y-115.57
X156.17Y-110.58
X156.255Y-115.57
X158.71Y-110.58
X158.795Y-115.57
X161.25Y-110.58
X161.335Y-115.57
X163.79Y-110.58
X163.875Y-115.57
X166.33Y-110.58
X166.415Y-115.57
X168.87Y-110.58
X168.955Y-115.57
X171.41Y-110.58
X171.495Y-115.57
X173.95Y-110.58
X174.035Y-115.57
X176.49Y-110.58
X176.575Y-115.57
X179.03Y-110.58
X179.115Y-115.57
X181.57Y-110.58
X181.655Y-115.57
T0
M30
